<svg width="296" height="152" viewBox="0 0 296 152" fill="none" xmlns="http://www.w3.org/2000/svg">
<path d="M26.0119 1.47025C25.7198 1.47025 25.5131 1.40987 25.392 1.28913C25.2779 1.16838 25.2209 1.01568 25.2209 0.831009V0.639238C25.2209 0.454569 25.2779 0.301862 25.392 0.181117C25.5131 0.0603726 25.7198 0 26.0119 0C26.3041 0 26.5072 0.0603726 26.6212 0.181117C26.7424 0.301862 26.803 0.454569 26.803 0.639238V0.831009C26.803 1.01568 26.7424 1.16838 26.6212 1.28913C26.5072 1.40987 26.3041 1.47025 26.0119 1.47025Z" fill="black"/>
<path d="M32.4214 1.47025C32.1292 1.47025 31.9226 1.40987 31.8014 1.28913C31.6874 1.16838 31.6304 1.01568 31.6304 0.831009V0.639238C31.6304 0.454569 31.6874 0.301862 31.8014 0.181117C31.9226 0.0603726 32.1292 0 32.4214 0C32.7136 0 32.9167 0.0603726 33.0307 0.181117C33.1518 0.301862 33.2124 0.454569 33.2124 0.639238V0.831009C33.2124 1.01568 33.1518 1.16838 33.0307 1.28913C32.9167 1.40987 32.7136 1.47025 32.4214 1.47025Z" fill="black"/>
<path d="M38.8308 1.47025C38.5387 1.47025 38.332 1.40987 38.2109 1.28913C38.0968 1.16838 38.0398 1.01568 38.0398 0.831009V0.639238C38.0398 0.454569 38.0968 0.301862 38.2109 0.181117C38.332 0.0603726 38.5387 0 38.8308 0C39.123 0 39.3261 0.0603726 39.4401 0.181117C39.5613 0.301862 39.6219 0.454569 39.6219 0.639238V0.831009C39.6219 1.01568 39.5613 1.16838 39.4401 1.28913C39.3261 1.40987 39.123 1.47025 38.8308 1.47025Z" fill="black"/>
<path d="M45.2403 1.47025C44.9481 1.47025 44.7415 1.40987 44.6203 1.28913C44.5063 1.16838 44.4493 1.01568 44.4493 0.831009V0.639238C44.4493 0.454569 44.5063 0.301862 44.6203 0.181117C44.7415 0.0603726 44.9481 0 45.2403 0C45.5325 0 45.7356 0.0603726 45.8496 0.181117C45.9707 0.301862 46.0313 0.454569 46.0313 0.639238V0.831009C46.0313 1.01568 45.9707 1.16838 45.8496 1.28913C45.7356 1.40987 45.5325 1.47025 45.2403 1.47025Z" fill="black"/>
<path d="M51.6498 1.47025C51.3576 1.47025 51.1509 1.40987 51.0298 1.28913C50.9158 1.16838 50.8587 1.01568 50.8587 0.831009V0.639238C50.8587 0.454569 50.9158 0.301862 51.0298 0.181117C51.1509 0.0603726 51.3576 0 51.6498 0C51.9419 0 52.145 0.0603726 52.2591 0.181117C52.3802 0.301862 52.4408 0.454569 52.4408 0.639238V0.831009C52.4408 1.01568 52.3802 1.16838 52.2591 1.28913C52.145 1.40987 51.9419 1.47025 51.6498 1.47025Z" fill="black"/>
<path d="M58.0592 1.47025C57.767 1.47025 57.5604 1.40987 57.4392 1.28913C57.3252 1.16838 57.2682 1.01568 57.2682 0.831009V0.639238C57.2682 0.454569 57.3252 0.301862 57.4392 0.181117C57.5604 0.0603726 57.767 0 58.0592 0C58.3514 0 58.5545 0.0603726 58.6685 0.181117C58.7896 0.301862 58.8502 0.454569 58.8502 0.639238V0.831009C58.8502 1.01568 58.7896 1.16838 58.6685 1.28913C58.5545 1.40987 58.3514 1.47025 58.0592 1.47025Z" fill="black"/>
<path d="M64.4687 1.47025C64.1765 1.47025 63.9698 1.40987 63.8487 1.28913C63.7347 1.16838 63.6777 1.01568 63.6777 0.831009V0.639238C63.6777 0.454569 63.7347 0.301862 63.8487 0.181117C63.9698 0.0603726 64.1765 0 64.4687 0C64.7608 0 64.9639 0.0603726 65.078 0.181117C65.1991 0.301862 65.2597 0.454569 65.2597 0.639238V0.831009C65.2597 1.01568 65.1991 1.16838 65.078 1.28913C64.9639 1.40987 64.7608 1.47025 64.4687 1.47025Z" fill="black"/>
<path d="M70.8781 1.47025C70.5859 1.47025 70.3793 1.40987 70.2581 1.28913C70.1441 1.16838 70.0871 1.01568 70.0871 0.831009V0.639238C70.0871 0.454569 70.1441 0.301862 70.2581 0.181117C70.3793 0.0603726 70.5859 0 70.8781 0C71.1703 0 71.3734 0.0603726 71.4874 0.181117C71.6086 0.301862 71.6691 0.454569 71.6691 0.639238V0.831009C71.6691 1.01568 71.6086 1.16838 71.4874 1.28913C71.3734 1.40987 71.1703 1.47025 70.8781 1.47025Z" fill="black"/>
<path d="M77.2876 1.47025C76.9954 1.47025 76.7887 1.40987 76.6676 1.28913C76.5536 1.16838 76.4966 1.01568 76.4966 0.831009V0.639238C76.4966 0.454569 76.5536 0.301862 76.6676 0.181117C76.7887 0.0603726 76.9954 0 77.2876 0C77.5798 0 77.7828 0.0603726 77.8969 0.181117C78.018 0.301862 78.0786 0.454569 78.0786 0.639238V0.831009C78.0786 1.01568 78.018 1.16838 77.8969 1.28913C77.7828 1.40987 77.5798 1.47025 77.2876 1.47025Z" fill="black"/>
<path d="M83.697 1.47025C83.4048 1.47025 83.1982 1.40987 83.077 1.28913C82.963 1.16838 82.906 1.01568 82.906 0.831009V0.639238C82.906 0.454569 82.963 0.301862 83.077 0.181117C83.1982 0.0603726 83.4048 0 83.697 0C83.9892 0 84.1923 0.0603726 84.3063 0.181117C84.4275 0.301862 84.488 0.454569 84.488 0.639238V0.831009C84.488 1.01568 84.4275 1.16838 84.3063 1.28913C84.1923 1.40987 83.9892 1.47025 83.697 1.47025Z" fill="black"/>
<path d="M90.1065 1.47025C89.8143 1.47025 89.6076 1.40987 89.4865 1.28913C89.3725 1.16838 89.3155 1.01568 89.3155 0.831009V0.639238C89.3155 0.454569 89.3725 0.301862 89.4865 0.181117C89.6076 0.0603726 89.8143 0 90.1065 0C90.3987 0 90.6017 0.0603726 90.7158 0.181117C90.8369 0.301862 90.8975 0.454569 90.8975 0.639238V0.831009C90.8975 1.01568 90.8369 1.16838 90.7158 1.28913C90.6017 1.40987 90.3987 1.47025 90.1065 1.47025Z" fill="black"/>
<path d="M96.5159 1.47025C96.2238 1.47025 96.0171 1.40987 95.896 1.28913C95.7819 1.16838 95.7249 1.01568 95.7249 0.831009V0.639238C95.7249 0.454569 95.7819 0.301862 95.896 0.181117C96.0171 0.0603726 96.2238 0 96.5159 0C96.8081 0 97.0112 0.0603726 97.1252 0.181117C97.2464 0.301862 97.3069 0.454569 97.3069 0.639238V0.831009C97.3069 1.01568 97.2464 1.16838 97.1252 1.28913C97.0112 1.40987 96.8081 1.47025 96.5159 1.47025Z" fill="black"/>
<path d="M102.925 1.47025C102.633 1.47025 102.427 1.40987 102.305 1.28913C102.191 1.16838 102.134 1.01568 102.134 0.831009V0.639238C102.134 0.454569 102.191 0.301862 102.305 0.181117C102.427 0.0603726 102.633 0 102.925 0C103.218 0 103.421 0.0603726 103.535 0.181117C103.656 0.301862 103.716 0.454569 103.716 0.639238V0.831009C103.716 1.01568 103.656 1.16838 103.535 1.28913C103.421 1.40987 103.218 1.47025 102.925 1.47025Z" fill="black"/>
<path d="M109.335 1.47025C109.043 1.47025 108.836 1.40987 108.715 1.28913C108.601 1.16838 108.544 1.01568 108.544 0.831009V0.639238C108.544 0.454569 108.601 0.301862 108.715 0.181117C108.836 0.0603726 109.043 0 109.335 0C109.627 0 109.83 0.0603726 109.944 0.181117C110.065 0.301862 110.126 0.454569 110.126 0.639238V0.831009C110.126 1.01568 110.065 1.16838 109.944 1.28913C109.83 1.40987 109.627 1.47025 109.335 1.47025Z" fill="black"/>
<path d="M115.744 1.47025C115.452 1.47025 115.245 1.40987 115.124 1.28913C115.01 1.16838 114.953 1.01568 114.953 0.831009V0.639238C114.953 0.454569 115.01 0.301862 115.124 0.181117C115.245 0.0603726 115.452 0 115.744 0C116.036 0 116.24 0.0603726 116.354 0.181117C116.475 0.301862 116.535 0.454569 116.535 0.639238V0.831009C116.535 1.01568 116.475 1.16838 116.354 1.28913C116.24 1.40987 116.036 1.47025 115.744 1.47025Z" fill="black"/>
<path d="M122.154 1.47025C121.862 1.47025 121.655 1.40987 121.534 1.28913C121.42 1.16838 121.363 1.01568 121.363 0.831009V0.639238C121.363 0.454569 121.42 0.301862 121.534 0.181117C121.655 0.0603726 121.862 0 122.154 0C122.446 0 122.649 0.0603726 122.763 0.181117C122.884 0.301862 122.945 0.454569 122.945 0.639238V0.831009C122.945 1.01568 122.884 1.16838 122.763 1.28913C122.649 1.40987 122.446 1.47025 122.154 1.47025Z" fill="black"/>
<path d="M128.563 1.47025C128.271 1.47025 128.064 1.40987 127.943 1.28913C127.829 1.16838 127.772 1.01568 127.772 0.831009V0.639238C127.772 0.454569 127.829 0.301862 127.943 0.181117C128.064 0.0603726 128.271 0 128.563 0C128.855 0 129.058 0.0603726 129.173 0.181117C129.294 0.301862 129.354 0.454569 129.354 0.639238V0.831009C129.354 1.01568 129.294 1.16838 129.173 1.28913C129.058 1.40987 128.855 1.47025 128.563 1.47025Z" fill="black"/>
<path d="M134.973 1.47025C134.68 1.47025 134.474 1.40987 134.353 1.28913C134.239 1.16838 134.182 1.01568 134.182 0.831009V0.639238C134.182 0.454569 134.239 0.301862 134.353 0.181117C134.474 0.0603726 134.68 0 134.973 0C135.265 0 135.468 0.0603726 135.582 0.181117C135.703 0.301862 135.764 0.454569 135.764 0.639238V0.831009C135.764 1.01568 135.703 1.16838 135.582 1.28913C135.468 1.40987 135.265 1.47025 134.973 1.47025Z" fill="black"/>
<path d="M141.382 1.47025C141.09 1.47025 140.883 1.40987 140.762 1.28913C140.648 1.16838 140.591 1.01568 140.591 0.831009V0.639238C140.591 0.454569 140.648 0.301862 140.762 0.181117C140.883 0.0603726 141.09 0 141.382 0C141.674 0 141.877 0.0603726 141.991 0.181117C142.113 0.301862 142.173 0.454569 142.173 0.639238V0.831009C142.173 1.01568 142.113 1.16838 141.991 1.28913C141.877 1.40987 141.674 1.47025 141.382 1.47025Z" fill="black"/>
<path d="M147.792 1.47025C147.499 1.47025 147.293 1.40987 147.172 1.28913C147.058 1.16838 147.001 1.01568 147.001 0.831009V0.639238C147.001 0.454569 147.058 0.301862 147.172 0.181117C147.293 0.0603726 147.499 0 147.792 0C148.084 0 148.287 0.0603726 148.401 0.181117C148.522 0.301862 148.583 0.454569 148.583 0.639238V0.831009C148.583 1.01568 148.522 1.16838 148.401 1.28913C148.287 1.40987 148.084 1.47025 147.792 1.47025Z" fill="black"/>
<path d="M154.201 1.47025C153.909 1.47025 153.702 1.40987 153.581 1.28913C153.467 1.16838 153.41 1.01568 153.41 0.831009V0.639238C153.41 0.454569 153.467 0.301862 153.581 0.181117C153.702 0.0603726 153.909 0 154.201 0C154.493 0 154.696 0.0603726 154.81 0.181117C154.931 0.301862 154.992 0.454569 154.992 0.639238V0.831009C154.992 1.01568 154.931 1.16838 154.81 1.28913C154.696 1.40987 154.493 1.47025 154.201 1.47025Z" fill="black"/>
<path d="M160.61 1.47025C160.318 1.47025 160.112 1.40987 159.99 1.28913C159.876 1.16838 159.819 1.01568 159.819 0.831009V0.639238C159.819 0.454569 159.876 0.301862 159.99 0.181117C160.112 0.0603726 160.318 0 160.61 0C160.903 0 161.106 0.0603726 161.22 0.181117C161.341 0.301862 161.401 0.454569 161.401 0.639238V0.831009C161.401 1.01568 161.341 1.16838 161.22 1.28913C161.106 1.40987 160.903 1.47025 160.61 1.47025Z" fill="black"/>
<path d="M167.02 1.47025C166.728 1.47025 166.521 1.40987 166.4 1.28913C166.286 1.16838 166.229 1.01568 166.229 0.831009V0.639238C166.229 0.454569 166.286 0.301862 166.4 0.181117C166.521 0.0603726 166.728 0 167.02 0C167.312 0 167.515 0.0603726 167.629 0.181117C167.75 0.301862 167.811 0.454569 167.811 0.639238V0.831009C167.811 1.01568 167.75 1.16838 167.629 1.28913C167.515 1.40987 167.312 1.47025 167.02 1.47025Z" fill="black"/>
<path d="M173.429 1.47025C173.137 1.47025 172.931 1.40987 172.809 1.28913C172.695 1.16838 172.638 1.01568 172.638 0.831009V0.639238C172.638 0.454569 172.695 0.301862 172.809 0.181117C172.931 0.0603726 173.137 0 173.429 0C173.722 0 173.925 0.0603726 174.039 0.181117C174.16 0.301862 174.22 0.454569 174.22 0.639238V0.831009C174.22 1.01568 174.16 1.16838 174.039 1.28913C173.925 1.40987 173.722 1.47025 173.429 1.47025Z" fill="black"/>
<path d="M179.839 1.47025C179.547 1.47025 179.34 1.40987 179.219 1.28913C179.105 1.16838 179.048 1.01568 179.048 0.831009V0.639238C179.048 0.454569 179.105 0.301862 179.219 0.181117C179.34 0.0603726 179.547 0 179.839 0C180.131 0 180.334 0.0603726 180.448 0.181117C180.569 0.301862 180.63 0.454569 180.63 0.639238V0.831009C180.63 1.01568 180.569 1.16838 180.448 1.28913C180.334 1.40987 180.131 1.47025 179.839 1.47025Z" fill="black"/>
<path d="M186.248 1.47025C185.956 1.47025 185.749 1.40987 185.628 1.28913C185.514 1.16838 185.457 1.01568 185.457 0.831009V0.639238C185.457 0.454569 185.514 0.301862 185.628 0.181117C185.749 0.0603726 185.956 0 186.248 0C186.54 0 186.744 0.0603726 186.858 0.181117C186.979 0.301862 187.039 0.454569 187.039 0.639238V0.831009C187.039 1.01568 186.979 1.16838 186.858 1.28913C186.744 1.40987 186.54 1.47025 186.248 1.47025Z" fill="black"/>
<path d="M192.658 1.47025C192.366 1.47025 192.159 1.40987 192.038 1.28913C191.924 1.16838 191.867 1.01568 191.867 0.831009V0.639238C191.867 0.454569 191.924 0.301862 192.038 0.181117C192.159 0.0603726 192.366 0 192.658 0C192.95 0 193.153 0.0603726 193.267 0.181117C193.388 0.301862 193.449 0.454569 193.449 0.639238V0.831009C193.449 1.01568 193.388 1.16838 193.267 1.28913C193.153 1.40987 192.95 1.47025 192.658 1.47025Z" fill="black"/>
<path d="M199.067 1.47025C198.775 1.47025 198.568 1.40987 198.447 1.28913C198.333 1.16838 198.276 1.01568 198.276 0.831009V0.639238C198.276 0.454569 198.333 0.301862 198.447 0.181117C198.568 0.0603726 198.775 0 199.067 0C199.359 0 199.562 0.0603726 199.676 0.181117C199.798 0.301862 199.858 0.454569 199.858 0.639238V0.831009C199.858 1.01568 199.798 1.16838 199.676 1.28913C199.562 1.40987 199.359 1.47025 199.067 1.47025Z" fill="black"/>
<path d="M205.477 1.47025C205.184 1.47025 204.978 1.40987 204.857 1.28913C204.743 1.16838 204.686 1.01568 204.686 0.831009V0.639238C204.686 0.454569 204.743 0.301862 204.857 0.181117C204.978 0.0603726 205.184 0 205.477 0C205.769 0 205.972 0.0603726 206.086 0.181117C206.207 0.301862 206.268 0.454569 206.268 0.639238V0.831009C206.268 1.01568 206.207 1.16838 206.086 1.28913C205.972 1.40987 205.769 1.47025 205.477 1.47025Z" fill="black"/>
<path d="M211.886 1.47025C211.594 1.47025 211.387 1.40987 211.266 1.28913C211.152 1.16838 211.095 1.01568 211.095 0.831009V0.639238C211.095 0.454569 211.152 0.301862 211.266 0.181117C211.387 0.0603726 211.594 0 211.886 0C212.178 0 212.381 0.0603726 212.495 0.181117C212.617 0.301862 212.677 0.454569 212.677 0.639238V0.831009C212.677 1.01568 212.617 1.16838 212.495 1.28913C212.381 1.40987 212.178 1.47025 211.886 1.47025Z" fill="black"/>
<path d="M218.296 1.47025C218.003 1.47025 217.797 1.40987 217.676 1.28913C217.562 1.16838 217.505 1.01568 217.505 0.831009V0.639238C217.505 0.454569 217.562 0.301862 217.676 0.181117C217.797 0.0603726 218.003 0 218.296 0C218.588 0 218.791 0.0603726 218.905 0.181117C219.026 0.301862 219.087 0.454569 219.087 0.639238V0.831009C219.087 1.01568 219.026 1.16838 218.905 1.28913C218.791 1.40987 218.588 1.47025 218.296 1.47025Z" fill="black"/>
<path d="M224.705 1.47025C224.413 1.47025 224.206 1.40987 224.085 1.28913C223.971 1.16838 223.914 1.01568 223.914 0.831009V0.639238C223.914 0.454569 223.971 0.301862 224.085 0.181117C224.206 0.0603726 224.413 0 224.705 0C224.997 0 225.2 0.0603726 225.314 0.181117C225.435 0.301862 225.496 0.454569 225.496 0.639238V0.831009C225.496 1.01568 225.435 1.16838 225.314 1.28913C225.2 1.40987 224.997 1.47025 224.705 1.47025Z" fill="black"/>
<path d="M231.114 1.47025C230.822 1.47025 230.616 1.40987 230.494 1.28913C230.38 1.16838 230.323 1.01568 230.323 0.831009V0.639238C230.323 0.454569 230.38 0.301862 230.494 0.181117C230.616 0.0603726 230.822 0 231.114 0C231.407 0 231.61 0.0603726 231.724 0.181117C231.845 0.301862 231.905 0.454569 231.905 0.639238V0.831009C231.905 1.01568 231.845 1.16838 231.724 1.28913C231.61 1.40987 231.407 1.47025 231.114 1.47025Z" fill="black"/>
<path d="M237.524 1.47025C237.232 1.47025 237.025 1.40987 236.904 1.28913C236.79 1.16838 236.733 1.01568 236.733 0.831009V0.639238C236.733 0.454569 236.79 0.301862 236.904 0.181117C237.025 0.0603726 237.232 0 237.524 0C237.816 0 238.019 0.0603726 238.133 0.181117C238.254 0.301862 238.315 0.454569 238.315 0.639238V0.831009C238.315 1.01568 238.254 1.16838 238.133 1.28913C238.019 1.40987 237.816 1.47025 237.524 1.47025Z" fill="black"/>
<path d="M243.933 1.47025C243.641 1.47025 243.435 1.40987 243.313 1.28913C243.199 1.16838 243.142 1.01568 243.142 0.831009V0.639238C243.142 0.454569 243.199 0.301862 243.313 0.181117C243.435 0.0603726 243.641 0 243.933 0C244.226 0 244.429 0.0603726 244.543 0.181117C244.664 0.301862 244.724 0.454569 244.724 0.639238V0.831009C244.724 1.01568 244.664 1.16838 244.543 1.28913C244.429 1.40987 244.226 1.47025 243.933 1.47025Z" fill="black"/>
<path d="M250.343 1.47025C250.051 1.47025 249.844 1.40987 249.723 1.28913C249.609 1.16838 249.552 1.01568 249.552 0.831009V0.639238C249.552 0.454569 249.609 0.301862 249.723 0.181117C249.844 0.0603726 250.051 0 250.343 0C250.635 0 250.838 0.0603726 250.952 0.181117C251.073 0.301862 251.134 0.454569 251.134 0.639238V0.831009C251.134 1.01568 251.073 1.16838 250.952 1.28913C250.838 1.40987 250.635 1.47025 250.343 1.47025Z" fill="black"/>
<path d="M256.752 1.47025C256.46 1.47025 256.253 1.40987 256.132 1.28913C256.018 1.16838 255.961 1.01568 255.961 0.831009V0.639238C255.961 0.454569 256.018 0.301862 256.132 0.181117C256.253 0.0603726 256.46 0 256.752 0C257.044 0 257.248 0.0603726 257.362 0.181117C257.483 0.301862 257.543 0.454569 257.543 0.639238V0.831009C257.543 1.01568 257.483 1.16838 257.362 1.28913C257.248 1.40987 257.044 1.47025 256.752 1.47025Z" fill="black"/>
<path d="M263.162 1.47025C262.87 1.47025 262.663 1.40987 262.542 1.28913C262.428 1.16838 262.371 1.01568 262.371 0.831009V0.639238C262.371 0.454569 262.428 0.301862 262.542 0.181117C262.663 0.0603726 262.87 0 263.162 0C263.454 0 263.657 0.0603726 263.771 0.181117C263.892 0.301862 263.953 0.454569 263.953 0.639238V0.831009C263.953 1.01568 263.892 1.16838 263.771 1.28913C263.657 1.40987 263.454 1.47025 263.162 1.47025Z" fill="black"/>
<path d="M269.571 1.47025C269.279 1.47025 269.072 1.40987 268.951 1.28913C268.837 1.16838 268.78 1.01568 268.78 0.831009V0.639238C268.78 0.454569 268.837 0.301862 268.951 0.181117C269.072 0.0603726 269.279 0 269.571 0C269.863 0 270.066 0.0603726 270.18 0.181117C270.302 0.301862 270.362 0.454569 270.362 0.639238V0.831009C270.362 1.01568 270.302 1.16838 270.18 1.28913C270.066 1.40987 269.863 1.47025 269.571 1.47025Z" fill="black"/>
<path d="M275.981 1.47025C275.688 1.47025 275.482 1.40987 275.361 1.28913C275.247 1.16838 275.19 1.01568 275.19 0.831009V0.639238C275.19 0.454569 275.247 0.301862 275.361 0.181117C275.482 0.0603726 275.688 0 275.981 0C276.273 0 276.476 0.0603726 276.59 0.181117C276.711 0.301862 276.772 0.454569 276.772 0.639238V0.831009C276.772 1.01568 276.711 1.16838 276.59 1.28913C276.476 1.40987 276.273 1.47025 275.981 1.47025Z" fill="black"/>
<path d="M282.39 1.47025C282.098 1.47025 281.891 1.40987 281.77 1.28913C281.656 1.16838 281.599 1.01568 281.599 0.831009V0.639238C281.599 0.454569 281.656 0.301862 281.77 0.181117C281.891 0.0603726 282.098 0 282.39 0C282.682 0 282.885 0.0603726 282.999 0.181117C283.121 0.301862 283.181 0.454569 283.181 0.639238V0.831009C283.181 1.01568 283.121 1.16838 282.999 1.28913C282.885 1.40987 282.682 1.47025 282.39 1.47025Z" fill="black"/>
<path d="M288.8 1.47025C288.507 1.47025 288.301 1.40987 288.18 1.28913C288.066 1.16838 288.009 1.01568 288.009 0.831009V0.639238C288.009 0.454569 288.066 0.301862 288.18 0.181117C288.301 0.0603726 288.507 0 288.8 0C289.092 0 289.295 0.0603726 289.409 0.181117C289.53 0.301862 289.591 0.454569 289.591 0.639238V0.831009C289.591 1.01568 289.53 1.16838 289.409 1.28913C289.295 1.40987 289.092 1.47025 288.8 1.47025Z" fill="black"/>
<path d="M295.209 1.47025C294.917 1.47025 294.71 1.40987 294.589 1.28913C294.475 1.16838 294.418 1.01568 294.418 0.831009V0.639238C294.418 0.454569 294.475 0.301862 294.589 0.181117C294.71 0.0603726 294.917 0 295.209 0C295.501 0 295.704 0.0603726 295.818 0.181117C295.939 0.301862 296 0.454569 296 0.639238V0.831009C296 1.01568 295.939 1.16838 295.818 1.28913C295.704 1.40987 295.501 1.47025 295.209 1.47025Z" fill="black"/>
<path d="M10.9483 13.4986L14.6682 3.93131H15.4378L11.7179 13.4986H10.9483Z" fill="black"/>
<path d="M294.835 13.4986V3.93131H295.583V13.4986H294.835Z" fill="black"/>
<path d="M4.53881 24.1525L8.25872 14.5853H9.02835L5.30845 24.1525H4.53881Z" fill="black"/>
<path d="M294.835 24.1525V14.5853H295.583V24.1525H294.835Z" fill="black"/>
<path d="M0 34.8065V25.2392H0.748257V34.8065H0Z" fill="black"/>
<path d="M294.835 34.8065V25.2392H295.583V34.8065H294.835Z" fill="black"/>
<path d="M0 45.4604V35.8932H0.748257V45.4604H0Z" fill="black"/>
<path d="M294.835 45.4604V35.8932H295.583V45.4604H294.835Z" fill="black"/>
<path d="M0 56.1144V46.5471H0.748257V56.1144H0Z" fill="black"/>
<path d="M294.835 56.1144V46.5471H295.583V56.1144H294.835Z" fill="black"/>
<path d="M0 66.7683V57.2011H0.748257V66.7683H0Z" fill="black"/>
<path d="M294.835 66.7683V57.2011H295.583V66.7683H294.835Z" fill="black"/>
<path d="M0 77.4223V67.855H0.748257V77.4223H0Z" fill="black"/>
<path d="M294.835 77.4223V67.855H295.583V77.4223H294.835Z" fill="black"/>
<path d="M0 88.0763V78.509H0.748257V88.0763H0Z" fill="black"/>
<path d="M294.835 88.0763V78.509H295.583V88.0763H294.835Z" fill="black"/>
<path d="M0 98.7302V89.163H0.748257V98.7302H0Z" fill="black"/>
<path d="M294.835 98.7302V89.163H295.583V98.7302H294.835Z" fill="black"/>
<path d="M0 109.384V99.8169H0.748257V109.384H0Z" fill="black"/>
<path d="M294.835 109.384V99.8169H295.583V109.384H294.835Z" fill="black"/>
<path d="M0 120.038V110.471H0.748257V120.038H0Z" fill="black"/>
<path d="M294.835 120.038V110.471H295.583V120.038H294.835Z" fill="black"/>
<path d="M0 130.692V121.125H0.748257V130.692H0Z" fill="black"/>
<path d="M294.835 130.692V121.125H295.583V130.692H294.835Z" fill="black"/>
<path d="M0 141.346V131.779H0.748257V141.346H0Z" fill="black"/>
<path d="M294.835 141.346V131.779H295.583V141.346H294.835Z" fill="black"/>
<path d="M0 152V142.433H0.748257V152H0Z" fill="black"/>
<path d="M6.78358 150.626C6.49141 150.626 6.28474 150.565 6.1636 150.445C6.04958 150.324 5.99257 150.171 5.99257 149.986V149.795C5.99257 149.61 6.04958 149.457 6.1636 149.337C6.28474 149.216 6.49141 149.155 6.78358 149.155C7.07576 149.155 7.27886 149.216 7.39288 149.337C7.51402 149.457 7.5746 149.61 7.5746 149.795V149.986C7.5746 150.171 7.51402 150.324 7.39288 150.445C7.27886 150.565 7.07576 150.626 6.78358 150.626Z" fill="black"/>
<path d="M13.193 150.626C12.9009 150.626 12.6942 150.565 12.5731 150.445C12.459 150.324 12.402 150.171 12.402 149.986V149.795C12.402 149.61 12.459 149.457 12.5731 149.337C12.6942 149.216 12.9009 149.155 13.193 149.155C13.4852 149.155 13.6883 149.216 13.8023 149.337C13.9235 149.457 13.984 149.61 13.984 149.795V149.986C13.984 150.171 13.9235 150.324 13.8023 150.445C13.6883 150.565 13.4852 150.626 13.193 150.626Z" fill="black"/>
<path d="M19.6025 150.626C19.3103 150.626 19.1037 150.565 18.9825 150.445C18.8685 150.324 18.8115 150.171 18.8115 149.986V149.795C18.8115 149.61 18.8685 149.457 18.9825 149.337C19.1037 149.216 19.3103 149.155 19.6025 149.155C19.8947 149.155 20.0978 149.216 20.2118 149.337C20.3329 149.457 20.3935 149.61 20.3935 149.795V149.986C20.3935 150.171 20.3329 150.324 20.2118 150.445C20.0978 150.565 19.8947 150.626 19.6025 150.626Z" fill="black"/>
<path d="M26.0119 150.626C25.7198 150.626 25.5131 150.565 25.392 150.445C25.2779 150.324 25.2209 150.171 25.2209 149.986V149.795C25.2209 149.61 25.2779 149.457 25.392 149.337C25.5131 149.216 25.7198 149.155 26.0119 149.155C26.3041 149.155 26.5072 149.216 26.6212 149.337C26.7424 149.457 26.803 149.61 26.803 149.795V149.986C26.803 150.171 26.7424 150.324 26.6212 150.445C26.5072 150.565 26.3041 150.626 26.0119 150.626Z" fill="black"/>
<path d="M32.4214 150.626C32.1292 150.626 31.9226 150.565 31.8014 150.445C31.6874 150.324 31.6304 150.171 31.6304 149.986V149.795C31.6304 149.61 31.6874 149.457 31.8014 149.337C31.9226 149.216 32.1292 149.155 32.4214 149.155C32.7136 149.155 32.9167 149.216 33.0307 149.337C33.1518 149.457 33.2124 149.61 33.2124 149.795V149.986C33.2124 150.171 33.1518 150.324 33.0307 150.445C32.9167 150.565 32.7136 150.626 32.4214 150.626Z" fill="black"/>
<path d="M38.8308 150.626C38.5387 150.626 38.332 150.565 38.2109 150.445C38.0968 150.324 38.0398 150.171 38.0398 149.986V149.795C38.0398 149.61 38.0968 149.457 38.2109 149.337C38.332 149.216 38.5387 149.155 38.8308 149.155C39.123 149.155 39.3261 149.216 39.4401 149.337C39.5613 149.457 39.6219 149.61 39.6219 149.795V149.986C39.6219 150.171 39.5613 150.324 39.4401 150.445C39.3261 150.565 39.123 150.626 38.8308 150.626Z" fill="black"/>
<path d="M45.2403 150.626C44.9481 150.626 44.7415 150.565 44.6203 150.445C44.5063 150.324 44.4493 150.171 44.4493 149.986V149.795C44.4493 149.61 44.5063 149.457 44.6203 149.337C44.7415 149.216 44.9481 149.155 45.2403 149.155C45.5325 149.155 45.7356 149.216 45.8496 149.337C45.9707 149.457 46.0313 149.61 46.0313 149.795V149.986C46.0313 150.171 45.9707 150.324 45.8496 150.445C45.7356 150.565 45.5325 150.626 45.2403 150.626Z" fill="black"/>
<path d="M51.6498 150.626C51.3576 150.626 51.1509 150.565 51.0298 150.445C50.9158 150.324 50.8587 150.171 50.8587 149.986V149.795C50.8587 149.61 50.9158 149.457 51.0298 149.337C51.1509 149.216 51.3576 149.155 51.6498 149.155C51.9419 149.155 52.145 149.216 52.2591 149.337C52.3802 149.457 52.4408 149.61 52.4408 149.795V149.986C52.4408 150.171 52.3802 150.324 52.2591 150.445C52.145 150.565 51.9419 150.626 51.6498 150.626Z" fill="black"/>
<path d="M58.0592 150.626C57.767 150.626 57.5604 150.565 57.4392 150.445C57.3252 150.324 57.2682 150.171 57.2682 149.986V149.795C57.2682 149.61 57.3252 149.457 57.4392 149.337C57.5604 149.216 57.767 149.155 58.0592 149.155C58.3514 149.155 58.5545 149.216 58.6685 149.337C58.7896 149.457 58.8502 149.61 58.8502 149.795V149.986C58.8502 150.171 58.7896 150.324 58.6685 150.445C58.5545 150.565 58.3514 150.626 58.0592 150.626Z" fill="black"/>
<path d="M64.4687 150.626C64.1765 150.626 63.9698 150.565 63.8487 150.445C63.7347 150.324 63.6777 150.171 63.6777 149.986V149.795C63.6777 149.61 63.7347 149.457 63.8487 149.337C63.9698 149.216 64.1765 149.155 64.4687 149.155C64.7608 149.155 64.9639 149.216 65.078 149.337C65.1991 149.457 65.2597 149.61 65.2597 149.795V149.986C65.2597 150.171 65.1991 150.324 65.078 150.445C64.9639 150.565 64.7608 150.626 64.4687 150.626Z" fill="black"/>
<path d="M70.8781 150.626C70.5859 150.626 70.3793 150.565 70.2581 150.445C70.1441 150.324 70.0871 150.171 70.0871 149.986V149.795C70.0871 149.61 70.1441 149.457 70.2581 149.337C70.3793 149.216 70.5859 149.155 70.8781 149.155C71.1703 149.155 71.3734 149.216 71.4874 149.337C71.6086 149.457 71.6691 149.61 71.6691 149.795V149.986C71.6691 150.171 71.6086 150.324 71.4874 150.445C71.3734 150.565 71.1703 150.626 70.8781 150.626Z" fill="black"/>
<path d="M77.2876 150.626C76.9954 150.626 76.7887 150.565 76.6676 150.445C76.5536 150.324 76.4966 150.171 76.4966 149.986V149.795C76.4966 149.61 76.5536 149.457 76.6676 149.337C76.7887 149.216 76.9954 149.155 77.2876 149.155C77.5798 149.155 77.7828 149.216 77.8969 149.337C78.018 149.457 78.0786 149.61 78.0786 149.795V149.986C78.0786 150.171 78.018 150.324 77.8969 150.445C77.7828 150.565 77.5798 150.626 77.2876 150.626Z" fill="black"/>
<path d="M83.697 150.626C83.4048 150.626 83.1982 150.565 83.077 150.445C82.963 150.324 82.906 150.171 82.906 149.986V149.795C82.906 149.61 82.963 149.457 83.077 149.337C83.1982 149.216 83.4048 149.155 83.697 149.155C83.9892 149.155 84.1923 149.216 84.3063 149.337C84.4275 149.457 84.488 149.61 84.488 149.795V149.986C84.488 150.171 84.4275 150.324 84.3063 150.445C84.1923 150.565 83.9892 150.626 83.697 150.626Z" fill="black"/>
<path d="M90.1065 150.626C89.8143 150.626 89.6076 150.565 89.4865 150.445C89.3725 150.324 89.3155 150.171 89.3155 149.986V149.795C89.3155 149.61 89.3725 149.457 89.4865 149.337C89.6076 149.216 89.8143 149.155 90.1065 149.155C90.3987 149.155 90.6017 149.216 90.7158 149.337C90.8369 149.457 90.8975 149.61 90.8975 149.795V149.986C90.8975 150.171 90.8369 150.324 90.7158 150.445C90.6017 150.565 90.3987 150.626 90.1065 150.626Z" fill="black"/>
<path d="M96.5159 150.626C96.2238 150.626 96.0171 150.565 95.896 150.445C95.7819 150.324 95.7249 150.171 95.7249 149.986V149.795C95.7249 149.61 95.7819 149.457 95.896 149.337C96.0171 149.216 96.2238 149.155 96.5159 149.155C96.8081 149.155 97.0112 149.216 97.1252 149.337C97.2464 149.457 97.3069 149.61 97.3069 149.795V149.986C97.3069 150.171 97.2464 150.324 97.1252 150.445C97.0112 150.565 96.8081 150.626 96.5159 150.626Z" fill="black"/>
<path d="M102.925 150.626C102.633 150.626 102.427 150.565 102.305 150.445C102.191 150.324 102.134 150.171 102.134 149.986V149.795C102.134 149.61 102.191 149.457 102.305 149.337C102.427 149.216 102.633 149.155 102.925 149.155C103.218 149.155 103.421 149.216 103.535 149.337C103.656 149.457 103.716 149.61 103.716 149.795V149.986C103.716 150.171 103.656 150.324 103.535 150.445C103.421 150.565 103.218 150.626 102.925 150.626Z" fill="black"/>
<path d="M109.335 150.626C109.043 150.626 108.836 150.565 108.715 150.445C108.601 150.324 108.544 150.171 108.544 149.986V149.795C108.544 149.61 108.601 149.457 108.715 149.337C108.836 149.216 109.043 149.155 109.335 149.155C109.627 149.155 109.83 149.216 109.944 149.337C110.065 149.457 110.126 149.61 110.126 149.795V149.986C110.126 150.171 110.065 150.324 109.944 150.445C109.83 150.565 109.627 150.626 109.335 150.626Z" fill="black"/>
<path d="M115.744 150.626C115.452 150.626 115.245 150.565 115.124 150.445C115.01 150.324 114.953 150.171 114.953 149.986V149.795C114.953 149.61 115.01 149.457 115.124 149.337C115.245 149.216 115.452 149.155 115.744 149.155C116.036 149.155 116.24 149.216 116.354 149.337C116.475 149.457 116.535 149.61 116.535 149.795V149.986C116.535 150.171 116.475 150.324 116.354 150.445C116.24 150.565 116.036 150.626 115.744 150.626Z" fill="black"/>
<path d="M122.154 150.626C121.862 150.626 121.655 150.565 121.534 150.445C121.42 150.324 121.363 150.171 121.363 149.986V149.795C121.363 149.61 121.42 149.457 121.534 149.337C121.655 149.216 121.862 149.155 122.154 149.155C122.446 149.155 122.649 149.216 122.763 149.337C122.884 149.457 122.945 149.61 122.945 149.795V149.986C122.945 150.171 122.884 150.324 122.763 150.445C122.649 150.565 122.446 150.626 122.154 150.626Z" fill="black"/>
<path d="M128.563 150.626C128.271 150.626 128.064 150.565 127.943 150.445C127.829 150.324 127.772 150.171 127.772 149.986V149.795C127.772 149.61 127.829 149.457 127.943 149.337C128.064 149.216 128.271 149.155 128.563 149.155C128.855 149.155 129.058 149.216 129.173 149.337C129.294 149.457 129.354 149.61 129.354 149.795V149.986C129.354 150.171 129.294 150.324 129.173 150.445C129.058 150.565 128.855 150.626 128.563 150.626Z" fill="black"/>
<path d="M134.973 150.626C134.68 150.626 134.474 150.565 134.353 150.445C134.239 150.324 134.182 150.171 134.182 149.986V149.795C134.182 149.61 134.239 149.457 134.353 149.337C134.474 149.216 134.68 149.155 134.973 149.155C135.265 149.155 135.468 149.216 135.582 149.337C135.703 149.457 135.764 149.61 135.764 149.795V149.986C135.764 150.171 135.703 150.324 135.582 150.445C135.468 150.565 135.265 150.626 134.973 150.626Z" fill="black"/>
<path d="M141.382 150.626C141.09 150.626 140.883 150.565 140.762 150.445C140.648 150.324 140.591 150.171 140.591 149.986V149.795C140.591 149.61 140.648 149.457 140.762 149.337C140.883 149.216 141.09 149.155 141.382 149.155C141.674 149.155 141.877 149.216 141.991 149.337C142.113 149.457 142.173 149.61 142.173 149.795V149.986C142.173 150.171 142.113 150.324 141.991 150.445C141.877 150.565 141.674 150.626 141.382 150.626Z" fill="black"/>
<path d="M147.792 150.626C147.499 150.626 147.293 150.565 147.172 150.445C147.058 150.324 147.001 150.171 147.001 149.986V149.795C147.001 149.61 147.058 149.457 147.172 149.337C147.293 149.216 147.499 149.155 147.792 149.155C148.084 149.155 148.287 149.216 148.401 149.337C148.522 149.457 148.583 149.61 148.583 149.795V149.986C148.583 150.171 148.522 150.324 148.401 150.445C148.287 150.565 148.084 150.626 147.792 150.626Z" fill="black"/>
<path d="M154.201 150.626C153.909 150.626 153.702 150.565 153.581 150.445C153.467 150.324 153.41 150.171 153.41 149.986V149.795C153.41 149.61 153.467 149.457 153.581 149.337C153.702 149.216 153.909 149.155 154.201 149.155C154.493 149.155 154.696 149.216 154.81 149.337C154.931 149.457 154.992 149.61 154.992 149.795V149.986C154.992 150.171 154.931 150.324 154.81 150.445C154.696 150.565 154.493 150.626 154.201 150.626Z" fill="black"/>
<path d="M160.61 150.626C160.318 150.626 160.112 150.565 159.99 150.445C159.876 150.324 159.819 150.171 159.819 149.986V149.795C159.819 149.61 159.876 149.457 159.99 149.337C160.112 149.216 160.318 149.155 160.61 149.155C160.903 149.155 161.106 149.216 161.22 149.337C161.341 149.457 161.401 149.61 161.401 149.795V149.986C161.401 150.171 161.341 150.324 161.22 150.445C161.106 150.565 160.903 150.626 160.61 150.626Z" fill="black"/>
<path d="M167.02 150.626C166.728 150.626 166.521 150.565 166.4 150.445C166.286 150.324 166.229 150.171 166.229 149.986V149.795C166.229 149.61 166.286 149.457 166.4 149.337C166.521 149.216 166.728 149.155 167.02 149.155C167.312 149.155 167.515 149.216 167.629 149.337C167.75 149.457 167.811 149.61 167.811 149.795V149.986C167.811 150.171 167.75 150.324 167.629 150.445C167.515 150.565 167.312 150.626 167.02 150.626Z" fill="black"/>
<path d="M173.429 150.626C173.137 150.626 172.931 150.565 172.809 150.445C172.695 150.324 172.638 150.171 172.638 149.986V149.795C172.638 149.61 172.695 149.457 172.809 149.337C172.931 149.216 173.137 149.155 173.429 149.155C173.722 149.155 173.925 149.216 174.039 149.337C174.16 149.457 174.22 149.61 174.22 149.795V149.986C174.22 150.171 174.16 150.324 174.039 150.445C173.925 150.565 173.722 150.626 173.429 150.626Z" fill="black"/>
<path d="M179.839 150.626C179.547 150.626 179.34 150.565 179.219 150.445C179.105 150.324 179.048 150.171 179.048 149.986V149.795C179.048 149.61 179.105 149.457 179.219 149.337C179.34 149.216 179.547 149.155 179.839 149.155C180.131 149.155 180.334 149.216 180.448 149.337C180.569 149.457 180.63 149.61 180.63 149.795V149.986C180.63 150.171 180.569 150.324 180.448 150.445C180.334 150.565 180.131 150.626 179.839 150.626Z" fill="black"/>
<path d="M186.248 150.626C185.956 150.626 185.749 150.565 185.628 150.445C185.514 150.324 185.457 150.171 185.457 149.986V149.795C185.457 149.61 185.514 149.457 185.628 149.337C185.749 149.216 185.956 149.155 186.248 149.155C186.54 149.155 186.744 149.216 186.858 149.337C186.979 149.457 187.039 149.61 187.039 149.795V149.986C187.039 150.171 186.979 150.324 186.858 150.445C186.744 150.565 186.54 150.626 186.248 150.626Z" fill="black"/>
<path d="M192.658 150.626C192.366 150.626 192.159 150.565 192.038 150.445C191.924 150.324 191.867 150.171 191.867 149.986V149.795C191.867 149.61 191.924 149.457 192.038 149.337C192.159 149.216 192.366 149.155 192.658 149.155C192.95 149.155 193.153 149.216 193.267 149.337C193.388 149.457 193.449 149.61 193.449 149.795V149.986C193.449 150.171 193.388 150.324 193.267 150.445C193.153 150.565 192.95 150.626 192.658 150.626Z" fill="black"/>
<path d="M199.067 150.626C198.775 150.626 198.568 150.565 198.447 150.445C198.333 150.324 198.276 150.171 198.276 149.986V149.795C198.276 149.61 198.333 149.457 198.447 149.337C198.568 149.216 198.775 149.155 199.067 149.155C199.359 149.155 199.562 149.216 199.676 149.337C199.798 149.457 199.858 149.61 199.858 149.795V149.986C199.858 150.171 199.798 150.324 199.676 150.445C199.562 150.565 199.359 150.626 199.067 150.626Z" fill="black"/>
<path d="M205.477 150.626C205.184 150.626 204.978 150.565 204.857 150.445C204.743 150.324 204.686 150.171 204.686 149.986V149.795C204.686 149.61 204.743 149.457 204.857 149.337C204.978 149.216 205.184 149.155 205.477 149.155C205.769 149.155 205.972 149.216 206.086 149.337C206.207 149.457 206.268 149.61 206.268 149.795V149.986C206.268 150.171 206.207 150.324 206.086 150.445C205.972 150.565 205.769 150.626 205.477 150.626Z" fill="black"/>
<path d="M211.886 150.626C211.594 150.626 211.387 150.565 211.266 150.445C211.152 150.324 211.095 150.171 211.095 149.986V149.795C211.095 149.61 211.152 149.457 211.266 149.337C211.387 149.216 211.594 149.155 211.886 149.155C212.178 149.155 212.381 149.216 212.495 149.337C212.617 149.457 212.677 149.61 212.677 149.795V149.986C212.677 150.171 212.617 150.324 212.495 150.445C212.381 150.565 212.178 150.626 211.886 150.626Z" fill="black"/>
<path d="M218.296 150.626C218.003 150.626 217.797 150.565 217.676 150.445C217.562 150.324 217.505 150.171 217.505 149.986V149.795C217.505 149.61 217.562 149.457 217.676 149.337C217.797 149.216 218.003 149.155 218.296 149.155C218.588 149.155 218.791 149.216 218.905 149.337C219.026 149.457 219.087 149.61 219.087 149.795V149.986C219.087 150.171 219.026 150.324 218.905 150.445C218.791 150.565 218.588 150.626 218.296 150.626Z" fill="black"/>
<path d="M224.705 150.626C224.413 150.626 224.206 150.565 224.085 150.445C223.971 150.324 223.914 150.171 223.914 149.986V149.795C223.914 149.61 223.971 149.457 224.085 149.337C224.206 149.216 224.413 149.155 224.705 149.155C224.997 149.155 225.2 149.216 225.314 149.337C225.435 149.457 225.496 149.61 225.496 149.795V149.986C225.496 150.171 225.435 150.324 225.314 150.445C225.2 150.565 224.997 150.626 224.705 150.626Z" fill="black"/>
<path d="M231.114 150.626C230.822 150.626 230.616 150.565 230.494 150.445C230.38 150.324 230.323 150.171 230.323 149.986V149.795C230.323 149.61 230.38 149.457 230.494 149.337C230.616 149.216 230.822 149.155 231.114 149.155C231.407 149.155 231.61 149.216 231.724 149.337C231.845 149.457 231.905 149.61 231.905 149.795V149.986C231.905 150.171 231.845 150.324 231.724 150.445C231.61 150.565 231.407 150.626 231.114 150.626Z" fill="black"/>
<path d="M237.524 150.626C237.232 150.626 237.025 150.565 236.904 150.445C236.79 150.324 236.733 150.171 236.733 149.986V149.795C236.733 149.61 236.79 149.457 236.904 149.337C237.025 149.216 237.232 149.155 237.524 149.155C237.816 149.155 238.019 149.216 238.133 149.337C238.254 149.457 238.315 149.61 238.315 149.795V149.986C238.315 150.171 238.254 150.324 238.133 150.445C238.019 150.565 237.816 150.626 237.524 150.626Z" fill="black"/>
<path d="M243.933 150.626C243.641 150.626 243.435 150.565 243.313 150.445C243.199 150.324 243.142 150.171 243.142 149.986V149.795C243.142 149.61 243.199 149.457 243.313 149.337C243.435 149.216 243.641 149.155 243.933 149.155C244.226 149.155 244.429 149.216 244.543 149.337C244.664 149.457 244.724 149.61 244.724 149.795V149.986C244.724 150.171 244.664 150.324 244.543 150.445C244.429 150.565 244.226 150.626 243.933 150.626Z" fill="black"/>
<path d="M250.343 150.626C250.051 150.626 249.844 150.565 249.723 150.445C249.609 150.324 249.552 150.171 249.552 149.986V149.795C249.552 149.61 249.609 149.457 249.723 149.337C249.844 149.216 250.051 149.155 250.343 149.155C250.635 149.155 250.838 149.216 250.952 149.337C251.073 149.457 251.134 149.61 251.134 149.795V149.986C251.134 150.171 251.073 150.324 250.952 150.445C250.838 150.565 250.635 150.626 250.343 150.626Z" fill="black"/>
<path d="M256.752 150.626C256.46 150.626 256.253 150.565 256.132 150.445C256.018 150.324 255.961 150.171 255.961 149.986V149.795C255.961 149.61 256.018 149.457 256.132 149.337C256.253 149.216 256.46 149.155 256.752 149.155C257.044 149.155 257.248 149.216 257.362 149.337C257.483 149.457 257.543 149.61 257.543 149.795V149.986C257.543 150.171 257.483 150.324 257.362 150.445C257.248 150.565 257.044 150.626 256.752 150.626Z" fill="black"/>
<path d="M263.162 150.626C262.87 150.626 262.663 150.565 262.542 150.445C262.428 150.324 262.371 150.171 262.371 149.986V149.795C262.371 149.61 262.428 149.457 262.542 149.337C262.663 149.216 262.87 149.155 263.162 149.155C263.454 149.155 263.657 149.216 263.771 149.337C263.892 149.457 263.953 149.61 263.953 149.795V149.986C263.953 150.171 263.892 150.324 263.771 150.445C263.657 150.565 263.454 150.626 263.162 150.626Z" fill="black"/>
<path d="M269.571 150.626C269.279 150.626 269.072 150.565 268.951 150.445C268.837 150.324 268.78 150.171 268.78 149.986V149.795C268.78 149.61 268.837 149.457 268.951 149.337C269.072 149.216 269.279 149.155 269.571 149.155C269.863 149.155 270.066 149.216 270.18 149.337C270.302 149.457 270.362 149.61 270.362 149.795V149.986C270.362 150.171 270.302 150.324 270.18 150.445C270.066 150.565 269.863 150.626 269.571 150.626Z" fill="black"/>
<path d="M275.981 150.626C275.688 150.626 275.482 150.565 275.361 150.445C275.247 150.324 275.19 150.171 275.19 149.986V149.795C275.19 149.61 275.247 149.457 275.361 149.337C275.482 149.216 275.688 149.155 275.981 149.155C276.273 149.155 276.476 149.216 276.59 149.337C276.711 149.457 276.772 149.61 276.772 149.795V149.986C276.772 150.171 276.711 150.324 276.59 150.445C276.476 150.565 276.273 150.626 275.981 150.626Z" fill="black"/>
<path d="M282.39 150.626C282.098 150.626 281.891 150.565 281.77 150.445C281.656 150.324 281.599 150.171 281.599 149.986V149.795C281.599 149.61 281.656 149.457 281.77 149.337C281.891 149.216 282.098 149.155 282.39 149.155C282.682 149.155 282.885 149.216 282.999 149.337C283.121 149.457 283.181 149.61 283.181 149.795V149.986C283.181 150.171 283.121 150.324 282.999 150.445C282.885 150.565 282.682 150.626 282.39 150.626Z" fill="black"/>
<path d="M288.8 150.626C288.507 150.626 288.301 150.565 288.18 150.445C288.066 150.324 288.009 150.171 288.009 149.986V149.795C288.009 149.61 288.066 149.457 288.18 149.337C288.301 149.216 288.507 149.155 288.8 149.155C289.092 149.155 289.295 149.216 289.409 149.337C289.53 149.457 289.591 149.61 289.591 149.795V149.986C289.591 150.171 289.53 150.324 289.409 150.445C289.295 150.565 289.092 150.626 288.8 150.626Z" fill="black"/>
<path d="M294.835 152V142.433H295.583V152H294.835Z" fill="black"/>
</svg>
