<svg width="582" height="300" viewBox="0 0 582 300" fill="none" xmlns="http://www.w3.org/2000/svg">
<path d="M51.1451 2.9018C50.5706 2.9018 50.1643 2.78265 49.9261 2.54433C49.7019 2.30602 49.5898 2.00463 49.5898 1.64015V1.26165C49.5898 0.897176 49.7019 0.595781 49.9261 0.357469C50.1643 0.119156 50.5706 0 51.1451 0C51.7196 0 52.1189 0.119156 52.3431 0.357469C52.5813 0.595781 52.7004 0.897176 52.7004 1.26165V1.64015C52.7004 2.00463 52.5813 2.30602 52.3431 2.54433C52.1189 2.78265 51.7196 2.9018 51.1451 2.9018Z" fill="black"/>
<path d="M63.7475 2.9018C63.173 2.9018 62.7667 2.78265 62.5285 2.54433C62.3043 2.30602 62.1922 2.00463 62.1922 1.64015V1.26165C62.1922 0.897176 62.3043 0.595781 62.5285 0.357469C62.7667 0.119156 63.173 0 63.7475 0C64.322 0 64.7213 0.119156 64.9455 0.357469C65.1837 0.595781 65.3028 0.897176 65.3028 1.26165V1.64015C65.3028 2.00463 65.1837 2.30602 64.9455 2.54433C64.7213 2.78265 64.322 2.9018 63.7475 2.9018Z" fill="black"/>
<path d="M76.3498 2.9018C75.7754 2.9018 75.369 2.78265 75.1308 2.54433C74.9066 2.30602 74.7945 2.00463 74.7945 1.64015V1.26165C74.7945 0.897176 74.9066 0.595781 75.1308 0.357469C75.369 0.119156 75.7754 0 76.3498 0C76.9243 0 77.3237 0.119156 77.5479 0.357469C77.786 0.595781 77.9052 0.897176 77.9052 1.26165V1.64015C77.9052 2.00463 77.786 2.30602 77.5479 2.54433C77.3237 2.78265 76.9243 2.9018 76.3498 2.9018Z" fill="black"/>
<path d="M88.9522 2.9018C88.3777 2.9018 87.9714 2.78265 87.7332 2.54433C87.509 2.30602 87.3969 2.00463 87.3969 1.64015V1.26165C87.3969 0.897176 87.509 0.595781 87.7332 0.357469C87.9714 0.119156 88.3777 0 88.9522 0C89.5267 0 89.926 0.119156 90.1502 0.357469C90.3884 0.595781 90.5075 0.897176 90.5075 1.26165V1.64015C90.5075 2.00463 90.3884 2.30602 90.1502 2.54433C89.926 2.78265 89.5267 2.9018 88.9522 2.9018Z" fill="black"/>
<path d="M101.555 2.9018C100.98 2.9018 100.574 2.78265 100.336 2.54433C100.111 2.30602 99.9993 2.00463 99.9993 1.64015V1.26165C99.9993 0.897176 100.111 0.595781 100.336 0.357469C100.574 0.119156 100.98 0 101.555 0C102.129 0 102.528 0.119156 102.753 0.357469C102.991 0.595781 103.11 0.897176 103.11 1.26165V1.64015C103.11 2.00463 102.991 2.30602 102.753 2.54433C102.528 2.78265 102.129 2.9018 101.555 2.9018Z" fill="black"/>
<path d="M114.157 2.9018C113.582 2.9018 113.176 2.78265 112.938 2.54433C112.714 2.30602 112.602 2.00463 112.602 1.64015V1.26165C112.602 0.897176 112.714 0.595781 112.938 0.357469C113.176 0.119156 113.582 0 114.157 0C114.731 0 115.131 0.119156 115.355 0.357469C115.593 0.595781 115.712 0.897176 115.712 1.26165V1.64015C115.712 2.00463 115.593 2.30602 115.355 2.54433C115.131 2.78265 114.731 2.9018 114.157 2.9018Z" fill="black"/>
<path d="M126.759 2.9018C126.185 2.9018 125.779 2.78265 125.54 2.54433C125.316 2.30602 125.204 2.00463 125.204 1.64015V1.26165C125.204 0.897176 125.316 0.595781 125.54 0.357469C125.779 0.119156 126.185 0 126.759 0C127.334 0 127.733 0.119156 127.957 0.357469C128.196 0.595781 128.315 0.897176 128.315 1.26165V1.64015C128.315 2.00463 128.196 2.30602 127.957 2.54433C127.733 2.78265 127.334 2.9018 126.759 2.9018Z" fill="black"/>
<path d="M139.362 2.9018C138.787 2.9018 138.381 2.78265 138.143 2.54433C137.918 2.30602 137.806 2.00463 137.806 1.64015V1.26165C137.806 0.897176 137.918 0.595781 138.143 0.357469C138.381 0.119156 138.787 0 139.362 0C139.936 0 140.336 0.119156 140.56 0.357469C140.798 0.595781 140.917 0.897176 140.917 1.26165V1.64015C140.917 2.00463 140.798 2.30602 140.56 2.54433C140.336 2.78265 139.936 2.9018 139.362 2.9018Z" fill="black"/>
<path d="M151.964 2.9018C151.39 2.9018 150.983 2.78265 150.745 2.54433C150.521 2.30602 150.409 2.00463 150.409 1.64015V1.26165C150.409 0.897176 150.521 0.595781 150.745 0.357469C150.983 0.119156 151.39 0 151.964 0C152.539 0 152.938 0.119156 153.162 0.357469C153.4 0.595781 153.519 0.897176 153.519 1.26165V1.64015C153.519 2.00463 153.4 2.30602 153.162 2.54433C152.938 2.78265 152.539 2.9018 151.964 2.9018Z" fill="black"/>
<path d="M164.566 2.9018C163.992 2.9018 163.586 2.78265 163.347 2.54433C163.123 2.30602 163.011 2.00463 163.011 1.64015V1.26165C163.011 0.897176 163.123 0.595781 163.347 0.357469C163.586 0.119156 163.992 0 164.566 0C165.141 0 165.54 0.119156 165.764 0.357469C166.003 0.595781 166.122 0.897176 166.122 1.26165V1.64015C166.122 2.00463 166.003 2.30602 165.764 2.54433C165.54 2.78265 165.141 2.9018 164.566 2.9018Z" fill="black"/>
<path d="M177.169 2.9018C176.594 2.9018 176.188 2.78265 175.95 2.54433C175.726 2.30602 175.614 2.00463 175.614 1.64015V1.26165C175.614 0.897176 175.726 0.595781 175.95 0.357469C176.188 0.119156 176.594 0 177.169 0C177.743 0 178.143 0.119156 178.367 0.357469C178.605 0.595781 178.724 0.897176 178.724 1.26165V1.64015C178.724 2.00463 178.605 2.30602 178.367 2.54433C178.143 2.78265 177.743 2.9018 177.169 2.9018Z" fill="black"/>
<path d="M189.771 2.9018C189.197 2.9018 188.79 2.78265 188.552 2.54433C188.328 2.30602 188.216 2.00463 188.216 1.64015V1.26165C188.216 0.897176 188.328 0.595781 188.552 0.357469C188.79 0.119156 189.197 0 189.771 0C190.346 0 190.745 0.119156 190.969 0.357469C191.207 0.595781 191.327 0.897176 191.327 1.26165V1.64015C191.327 2.00463 191.207 2.30602 190.969 2.54433C190.745 2.78265 190.346 2.9018 189.771 2.9018Z" fill="black"/>
<path d="M202.374 2.9018C201.799 2.9018 201.393 2.78265 201.155 2.54433C200.93 2.30602 200.818 2.00463 200.818 1.64015V1.26165C200.818 0.897176 200.93 0.595781 201.155 0.357469C201.393 0.119156 201.799 0 202.374 0C202.948 0 203.347 0.119156 203.572 0.357469C203.81 0.595781 203.929 0.897176 203.929 1.26165V1.64015C203.929 2.00463 203.81 2.30602 203.572 2.54433C203.347 2.78265 202.948 2.9018 202.374 2.9018Z" fill="black"/>
<path d="M214.976 2.9018C214.401 2.9018 213.995 2.78265 213.757 2.54433C213.533 2.30602 213.421 2.00463 213.421 1.64015V1.26165C213.421 0.897176 213.533 0.595781 213.757 0.357469C213.995 0.119156 214.401 0 214.976 0C215.55 0 215.95 0.119156 216.174 0.357469C216.412 0.595781 216.531 0.897176 216.531 1.26165V1.64015C216.531 2.00463 216.412 2.30602 216.174 2.54433C215.95 2.78265 215.55 2.9018 214.976 2.9018Z" fill="black"/>
<path d="M227.578 2.9018C227.004 2.9018 226.597 2.78265 226.359 2.54433C226.135 2.30602 226.023 2.00463 226.023 1.64015V1.26165C226.023 0.897176 226.135 0.595781 226.359 0.357469C226.597 0.119156 227.004 0 227.578 0C228.153 0 228.552 0.119156 228.776 0.357469C229.015 0.595781 229.134 0.897176 229.134 1.26165V1.64015C229.134 2.00463 229.015 2.30602 228.776 2.54433C228.552 2.78265 228.153 2.9018 227.578 2.9018Z" fill="black"/>
<path d="M240.181 2.9018C239.606 2.9018 239.2 2.78265 238.962 2.54433C238.737 2.30602 238.625 2.00463 238.625 1.64015V1.26165C238.625 0.897176 238.737 0.595781 238.962 0.357469C239.2 0.119156 239.606 0 240.181 0C240.755 0 241.154 0.119156 241.379 0.357469C241.617 0.595781 241.736 0.897176 241.736 1.26165V1.64015C241.736 2.00463 241.617 2.30602 241.379 2.54433C241.154 2.78265 240.755 2.9018 240.181 2.9018Z" fill="black"/>
<path d="M252.783 2.9018C252.209 2.9018 251.802 2.78265 251.564 2.54433C251.34 2.30602 251.228 2.00463 251.228 1.64015V1.26165C251.228 0.897176 251.34 0.595781 251.564 0.357469C251.802 0.119156 252.209 0 252.783 0C253.358 0 253.757 0.119156 253.981 0.357469C254.219 0.595781 254.338 0.897176 254.338 1.26165V1.64015C254.338 2.00463 254.219 2.30602 253.981 2.54433C253.757 2.78265 253.358 2.9018 252.783 2.9018Z" fill="black"/>
<path d="M265.385 2.9018C264.811 2.9018 264.405 2.78265 264.166 2.54433C263.942 2.30602 263.83 2.00463 263.83 1.64015V1.26165C263.83 0.897176 263.942 0.595781 264.166 0.357469C264.405 0.119156 264.811 0 265.385 0C265.96 0 266.359 0.119156 266.583 0.357469C266.822 0.595781 266.941 0.897176 266.941 1.26165V1.64015C266.941 2.00463 266.822 2.30602 266.583 2.54433C266.359 2.78265 265.96 2.9018 265.385 2.9018Z" fill="black"/>
<path d="M277.988 2.9018C277.413 2.9018 277.007 2.78265 276.769 2.54433C276.545 2.30602 276.432 2.00463 276.432 1.64015V1.26165C276.432 0.897176 276.545 0.595781 276.769 0.357469C277.007 0.119156 277.413 0 277.988 0C278.562 0 278.962 0.119156 279.186 0.357469C279.424 0.595781 279.543 0.897176 279.543 1.26165V1.64015C279.543 2.00463 279.424 2.30602 279.186 2.54433C278.962 2.78265 278.562 2.9018 277.988 2.9018Z" fill="black"/>
<path d="M290.59 2.9018C290.016 2.9018 289.609 2.78265 289.371 2.54433C289.147 2.30602 289.035 2.00463 289.035 1.64015V1.26165C289.035 0.897176 289.147 0.595781 289.371 0.357469C289.609 0.119156 290.016 0 290.59 0C291.165 0 291.564 0.119156 291.788 0.357469C292.026 0.595781 292.145 0.897176 292.145 1.26165V1.64015C292.145 2.00463 292.026 2.30602 291.788 2.54433C291.564 2.78265 291.165 2.9018 290.59 2.9018Z" fill="black"/>
<path d="M303.193 2.9018C302.618 2.9018 302.212 2.78265 301.974 2.54433C301.749 2.30602 301.637 2.00463 301.637 1.64015V1.26165C301.637 0.897176 301.749 0.595781 301.974 0.357469C302.212 0.119156 302.618 0 303.193 0C303.767 0 304.166 0.119156 304.391 0.357469C304.629 0.595781 304.748 0.897176 304.748 1.26165V1.64015C304.748 2.00463 304.629 2.30602 304.391 2.54433C304.166 2.78265 303.767 2.9018 303.193 2.9018Z" fill="black"/>
<path d="M315.795 2.9018C315.22 2.9018 314.814 2.78265 314.576 2.54433C314.352 2.30602 314.24 2.00463 314.24 1.64015V1.26165C314.24 0.897176 314.352 0.595781 314.576 0.357469C314.814 0.119156 315.22 0 315.795 0C316.369 0 316.769 0.119156 316.993 0.357469C317.231 0.595781 317.35 0.897176 317.35 1.26165V1.64015C317.35 2.00463 317.231 2.30602 316.993 2.54433C316.769 2.78265 316.369 2.9018 315.795 2.9018Z" fill="black"/>
<path d="M328.397 2.9018C327.823 2.9018 327.416 2.78265 327.178 2.54433C326.954 2.30602 326.842 2.00463 326.842 1.64015V1.26165C326.842 0.897176 326.954 0.595781 327.178 0.357469C327.416 0.119156 327.823 0 328.397 0C328.972 0 329.371 0.119156 329.595 0.357469C329.833 0.595781 329.953 0.897176 329.953 1.26165V1.64015C329.953 2.00463 329.833 2.30602 329.595 2.54433C329.371 2.78265 328.972 2.9018 328.397 2.9018Z" fill="black"/>
<path d="M341 2.9018C340.425 2.9018 340.019 2.78265 339.781 2.54433C339.556 2.30602 339.444 2.00463 339.444 1.64015V1.26165C339.444 0.897176 339.556 0.595781 339.781 0.357469C340.019 0.119156 340.425 0 341 0C341.574 0 341.973 0.119156 342.198 0.357469C342.436 0.595781 342.555 0.897176 342.555 1.26165V1.64015C342.555 2.00463 342.436 2.30602 342.198 2.54433C341.973 2.78265 341.574 2.9018 341 2.9018Z" fill="black"/>
<path d="M353.602 2.9018C353.028 2.9018 352.621 2.78265 352.383 2.54433C352.159 2.30602 352.047 2.00463 352.047 1.64015V1.26165C352.047 0.897176 352.159 0.595781 352.383 0.357469C352.621 0.119156 353.028 0 353.602 0C354.176 0 354.576 0.119156 354.8 0.357469C355.038 0.595781 355.157 0.897176 355.157 1.26165V1.64015C355.157 2.00463 355.038 2.30602 354.8 2.54433C354.576 2.78265 354.176 2.9018 353.602 2.9018Z" fill="black"/>
<path d="M366.204 2.9018C365.63 2.9018 365.224 2.78265 364.985 2.54433C364.761 2.30602 364.649 2.00463 364.649 1.64015V1.26165C364.649 0.897176 364.761 0.595781 364.985 0.357469C365.224 0.119156 365.63 0 366.204 0C366.779 0 367.178 0.119156 367.402 0.357469C367.641 0.595781 367.76 0.897176 367.76 1.26165V1.64015C367.76 2.00463 367.641 2.30602 367.402 2.54433C367.178 2.78265 366.779 2.9018 366.204 2.9018Z" fill="black"/>
<path d="M378.807 2.9018C378.232 2.9018 377.826 2.78265 377.588 2.54433C377.364 2.30602 377.251 2.00463 377.251 1.64015V1.26165C377.251 0.897176 377.364 0.595781 377.588 0.357469C377.826 0.119156 378.232 0 378.807 0C379.381 0 379.781 0.119156 380.005 0.357469C380.243 0.595781 380.362 0.897176 380.362 1.26165V1.64015C380.362 2.00463 380.243 2.30602 380.005 2.54433C379.781 2.78265 379.381 2.9018 378.807 2.9018Z" fill="black"/>
<path d="M391.409 2.9018C390.835 2.9018 390.428 2.78265 390.19 2.54433C389.966 2.30602 389.854 2.00463 389.854 1.64015V1.26165C389.854 0.897176 389.966 0.595781 390.19 0.357469C390.428 0.119156 390.835 0 391.409 0C391.984 0 392.383 0.119156 392.607 0.357469C392.845 0.595781 392.964 0.897176 392.964 1.26165V1.64015C392.964 2.00463 392.845 2.30602 392.607 2.54433C392.383 2.78265 391.984 2.9018 391.409 2.9018Z" fill="black"/>
<path d="M404.012 2.9018C403.437 2.9018 403.031 2.78265 402.792 2.54433C402.568 2.30602 402.456 2.00463 402.456 1.64015V1.26165C402.456 0.897176 402.568 0.595781 402.792 0.357469C403.031 0.119156 403.437 0 404.012 0C404.586 0 404.985 0.119156 405.21 0.357469C405.448 0.595781 405.567 0.897176 405.567 1.26165V1.64015C405.567 2.00463 405.448 2.30602 405.21 2.54433C404.985 2.78265 404.586 2.9018 404.012 2.9018Z" fill="black"/>
<path d="M416.614 2.9018C416.039 2.9018 415.633 2.78265 415.395 2.54433C415.171 2.30602 415.059 2.00463 415.059 1.64015V1.26165C415.059 0.897176 415.171 0.595781 415.395 0.357469C415.633 0.119156 416.039 0 416.614 0C417.188 0 417.588 0.119156 417.812 0.357469C418.05 0.595781 418.169 0.897176 418.169 1.26165V1.64015C418.169 2.00463 418.05 2.30602 417.812 2.54433C417.588 2.78265 417.188 2.9018 416.614 2.9018Z" fill="black"/>
<path d="M429.216 2.9018C428.642 2.9018 428.235 2.78265 427.997 2.54433C427.773 2.30602 427.661 2.00463 427.661 1.64015V1.26165C427.661 0.897176 427.773 0.595781 427.997 0.357469C428.235 0.119156 428.642 0 429.216 0C429.791 0 430.19 0.119156 430.414 0.357469C430.652 0.595781 430.772 0.897176 430.772 1.26165V1.64015C430.772 2.00463 430.652 2.30602 430.414 2.54433C430.19 2.78265 429.791 2.9018 429.216 2.9018Z" fill="black"/>
<path d="M441.819 2.9018C441.244 2.9018 440.838 2.78265 440.6 2.54433C440.375 2.30602 440.263 2.00463 440.263 1.64015V1.26165C440.263 0.897176 440.375 0.595781 440.6 0.357469C440.838 0.119156 441.244 0 441.819 0C442.393 0 442.792 0.119156 443.017 0.357469C443.255 0.595781 443.374 0.897176 443.374 1.26165V1.64015C443.374 2.00463 443.255 2.30602 443.017 2.54433C442.792 2.78265 442.393 2.9018 441.819 2.9018Z" fill="black"/>
<path d="M454.421 2.9018C453.846 2.9018 453.44 2.78265 453.202 2.54433C452.978 2.30602 452.866 2.00463 452.866 1.64015V1.26165C452.866 0.897176 452.978 0.595781 453.202 0.357469C453.44 0.119156 453.846 0 454.421 0C454.995 0 455.395 0.119156 455.619 0.357469C455.857 0.595781 455.976 0.897176 455.976 1.26165V1.64015C455.976 2.00463 455.857 2.30602 455.619 2.54433C455.395 2.78265 454.995 2.9018 454.421 2.9018Z" fill="black"/>
<path d="M467.023 2.9018C466.449 2.9018 466.043 2.78265 465.804 2.54433C465.58 2.30602 465.468 2.00463 465.468 1.64015V1.26165C465.468 0.897176 465.58 0.595781 465.804 0.357469C466.043 0.119156 466.449 0 467.023 0C467.598 0 467.997 0.119156 468.221 0.357469C468.46 0.595781 468.579 0.897176 468.579 1.26165V1.64015C468.579 2.00463 468.46 2.30602 468.221 2.54433C467.997 2.78265 467.598 2.9018 467.023 2.9018Z" fill="black"/>
<path d="M479.626 2.9018C479.051 2.9018 478.645 2.78265 478.407 2.54433C478.183 2.30602 478.07 2.00463 478.07 1.64015V1.26165C478.07 0.897176 478.183 0.595781 478.407 0.357469C478.645 0.119156 479.051 0 479.626 0C480.2 0 480.6 0.119156 480.824 0.357469C481.062 0.595781 481.181 0.897176 481.181 1.26165V1.64015C481.181 2.00463 481.062 2.30602 480.824 2.54433C480.6 2.78265 480.2 2.9018 479.626 2.9018Z" fill="black"/>
<path d="M492.228 2.9018C491.654 2.9018 491.247 2.78265 491.009 2.54433C490.785 2.30602 490.673 2.00463 490.673 1.64015V1.26165C490.673 0.897176 490.785 0.595781 491.009 0.357469C491.247 0.119156 491.654 0 492.228 0C492.803 0 493.202 0.119156 493.426 0.357469C493.664 0.595781 493.783 0.897176 493.783 1.26165V1.64015C493.783 2.00463 493.664 2.30602 493.426 2.54433C493.202 2.78265 492.803 2.9018 492.228 2.9018Z" fill="black"/>
<path d="M504.83 2.9018C504.256 2.9018 503.85 2.78265 503.611 2.54433C503.387 2.30602 503.275 2.00463 503.275 1.64015V1.26165C503.275 0.897176 503.387 0.595781 503.611 0.357469C503.85 0.119156 504.256 0 504.83 0C505.405 0 505.804 0.119156 506.029 0.357469C506.267 0.595781 506.386 0.897176 506.386 1.26165V1.64015C506.386 2.00463 506.267 2.30602 506.029 2.54433C505.804 2.78265 505.405 2.9018 504.83 2.9018Z" fill="black"/>
<path d="M517.433 2.9018C516.858 2.9018 516.452 2.78265 516.214 2.54433C515.99 2.30602 515.878 2.00463 515.878 1.64015V1.26165C515.878 0.897176 515.99 0.595781 516.214 0.357469C516.452 0.119156 516.858 0 517.433 0C518.007 0 518.407 0.119156 518.631 0.357469C518.869 0.595781 518.988 0.897176 518.988 1.26165V1.64015C518.988 2.00463 518.869 2.30602 518.631 2.54433C518.407 2.78265 518.007 2.9018 517.433 2.9018Z" fill="black"/>
<path d="M530.035 2.9018C529.461 2.9018 529.054 2.78265 528.816 2.54433C528.592 2.30602 528.48 2.00463 528.48 1.64015V1.26165C528.48 0.897176 528.592 0.595781 528.816 0.357469C529.054 0.119156 529.461 0 530.035 0C530.61 0 531.009 0.119156 531.233 0.357469C531.471 0.595781 531.591 0.897176 531.591 1.26165V1.64015C531.591 2.00463 531.471 2.30602 531.233 2.54433C531.009 2.78265 530.61 2.9018 530.035 2.9018Z" fill="black"/>
<path d="M542.638 2.9018C542.063 2.9018 541.657 2.78265 541.419 2.54433C541.194 2.30602 541.082 2.00463 541.082 1.64015V1.26165C541.082 0.897176 541.194 0.595781 541.419 0.357469C541.657 0.119156 542.063 0 542.638 0C543.212 0 543.611 0.119156 543.836 0.357469C544.074 0.595781 544.193 0.897176 544.193 1.26165V1.64015C544.193 2.00463 544.074 2.30602 543.836 2.54433C543.611 2.78265 543.212 2.9018 542.638 2.9018Z" fill="black"/>
<path d="M555.24 2.9018C554.665 2.9018 554.259 2.78265 554.021 2.54433C553.797 2.30602 553.685 2.00463 553.685 1.64015V1.26165C553.685 0.897176 553.797 0.595781 554.021 0.357469C554.259 0.119156 554.665 0 555.24 0C555.814 0 556.214 0.119156 556.438 0.357469C556.676 0.595781 556.795 0.897176 556.795 1.26165V1.64015C556.795 2.00463 556.676 2.30602 556.438 2.54433C556.214 2.78265 555.814 2.9018 555.24 2.9018Z" fill="black"/>
<path d="M567.842 2.9018C567.268 2.9018 566.862 2.78265 566.623 2.54433C566.399 2.30602 566.287 2.00463 566.287 1.64015V1.26165C566.287 0.897176 566.399 0.595781 566.623 0.357469C566.862 0.119156 567.268 0 567.842 0C568.417 0 568.816 0.119156 569.04 0.357469C569.279 0.595781 569.398 0.897176 569.398 1.26165V1.64015C569.398 2.00463 569.279 2.30602 569.04 2.54433C568.816 2.78265 568.417 2.9018 567.842 2.9018Z" fill="black"/>
<path d="M580.445 2.9018C579.87 2.9018 579.464 2.78265 579.226 2.54433C579.001 2.30602 578.889 2.00463 578.889 1.64015V1.26165C578.889 0.897176 579.001 0.595781 579.226 0.357469C579.464 0.119156 579.87 0 580.445 0C581.019 0 581.419 0.119156 581.643 0.357469C581.881 0.595781 582 0.897176 582 1.26165V1.64015C582 2.00463 581.881 2.30602 581.643 2.54433C581.419 2.78265 581.019 2.9018 580.445 2.9018Z" fill="black"/>
<path d="M21.5267 26.6419L28.8408 7.75916H30.3541L23.0399 26.6419H21.5267Z" fill="black"/>
<path d="M579.709 26.6419V7.75916H581.18V26.6419H579.709Z" fill="black"/>
<path d="M8.92428 47.6694L16.2384 28.7867H17.7517L10.4376 47.6694H8.92428Z" fill="black"/>
<path d="M579.709 47.6694V28.7867H581.18V47.6694H579.709Z" fill="black"/>
<path d="M0 68.697V49.8143H1.47123V68.697H0Z" fill="black"/>
<path d="M579.709 68.697V49.8143H581.18V68.697H579.709Z" fill="black"/>
<path d="M0 89.7245V70.8418H1.47123V89.7245H0Z" fill="black"/>
<path d="M579.709 89.7245V70.8418H581.18V89.7245H579.709Z" fill="black"/>
<path d="M0 110.752V91.8693H1.47123V110.752H0Z" fill="black"/>
<path d="M579.709 110.752V91.8693H581.18V110.752H579.709Z" fill="black"/>
<path d="M0 131.78V112.897H1.47123V131.78H0Z" fill="black"/>
<path d="M579.709 131.78V112.897H581.18V131.78H579.709Z" fill="black"/>
<path d="M0 152.807V133.924H1.47123V152.807H0Z" fill="black"/>
<path d="M579.709 152.807V133.924H581.18V152.807H579.709Z" fill="black"/>
<path d="M0 173.835V154.952H1.47123V173.835H0Z" fill="black"/>
<path d="M579.709 173.835V154.952H581.18V173.835H579.709Z" fill="black"/>
<path d="M0 194.862V175.98H1.47123V194.862H0Z" fill="black"/>
<path d="M579.709 194.862V175.98H581.18V194.862H579.709Z" fill="black"/>
<path d="M0 215.89V197.007H1.47123V215.89H0Z" fill="black"/>
<path d="M579.709 215.89V197.007H581.18V215.89H579.709Z" fill="black"/>
<path d="M0 236.917V218.035H1.47123V236.917H0Z" fill="black"/>
<path d="M579.709 236.917V218.035H581.18V236.917H579.709Z" fill="black"/>
<path d="M0 257.945V239.062H1.47123V257.945H0Z" fill="black"/>
<path d="M579.709 257.945V239.062H581.18V257.945H579.709Z" fill="black"/>
<path d="M0 278.972V260.09H1.47123V278.972H0Z" fill="black"/>
<path d="M579.709 278.972V260.09H581.18V278.972H579.709Z" fill="black"/>
<path d="M0 300V281.117H1.47123V300H0Z" fill="black"/>
<path d="M13.338 297.287C12.7635 297.287 12.3572 297.168 12.119 296.93C11.8948 296.692 11.7827 296.39 11.7827 296.026V295.647C11.7827 295.283 11.8948 294.981 12.119 294.743C12.3572 294.505 12.7635 294.386 13.338 294.386C13.9125 294.386 14.3118 294.505 14.536 294.743C14.7742 294.981 14.8933 295.283 14.8933 295.647V296.026C14.8933 296.39 14.7742 296.692 14.536 296.93C14.3118 297.168 13.9125 297.287 13.338 297.287Z" fill="black"/>
<path d="M25.9404 297.287C25.3659 297.287 24.9595 297.168 24.7213 296.93C24.4972 296.692 24.3851 296.39 24.3851 296.026V295.647C24.3851 295.283 24.4972 294.981 24.7213 294.743C24.9595 294.505 25.3659 294.386 25.9404 294.386C26.5148 294.386 26.9142 294.505 27.1384 294.743C27.3766 294.981 27.4957 295.283 27.4957 295.647V296.026C27.4957 296.39 27.3766 296.692 27.1384 296.93C26.9142 297.168 26.5148 297.287 25.9404 297.287Z" fill="black"/>
<path d="M38.5427 297.287C37.9683 297.287 37.5619 297.168 37.3237 296.93C37.0995 296.692 36.9874 296.39 36.9874 296.026V295.647C36.9874 295.283 37.0995 294.981 37.3237 294.743C37.5619 294.505 37.9683 294.386 38.5427 294.386C39.1172 294.386 39.5165 294.505 39.7407 294.743C39.9789 294.981 40.098 295.283 40.098 295.647V296.026C40.098 296.39 39.9789 296.692 39.7407 296.93C39.5165 297.168 39.1172 297.287 38.5427 297.287Z" fill="black"/>
<path d="M51.1451 297.287C50.5706 297.287 50.1643 297.168 49.9261 296.93C49.7019 296.692 49.5898 296.39 49.5898 296.026V295.647C49.5898 295.283 49.7019 294.981 49.9261 294.743C50.1643 294.505 50.5706 294.386 51.1451 294.386C51.7196 294.386 52.1189 294.505 52.3431 294.743C52.5813 294.981 52.7004 295.283 52.7004 295.647V296.026C52.7004 296.39 52.5813 296.692 52.3431 296.93C52.1189 297.168 51.7196 297.287 51.1451 297.287Z" fill="black"/>
<path d="M63.7475 297.287C63.173 297.287 62.7667 297.168 62.5285 296.93C62.3043 296.692 62.1922 296.39 62.1922 296.026V295.647C62.1922 295.283 62.3043 294.981 62.5285 294.743C62.7667 294.505 63.173 294.386 63.7475 294.386C64.322 294.386 64.7213 294.505 64.9455 294.743C65.1837 294.981 65.3028 295.283 65.3028 295.647V296.026C65.3028 296.39 65.1837 296.692 64.9455 296.93C64.7213 297.168 64.322 297.287 63.7475 297.287Z" fill="black"/>
<path d="M76.3498 297.287C75.7754 297.287 75.369 297.168 75.1308 296.93C74.9066 296.692 74.7945 296.39 74.7945 296.026V295.647C74.7945 295.283 74.9066 294.981 75.1308 294.743C75.369 294.505 75.7754 294.386 76.3498 294.386C76.9243 294.386 77.3237 294.505 77.5479 294.743C77.786 294.981 77.9052 295.283 77.9052 295.647V296.026C77.9052 296.39 77.786 296.692 77.5479 296.93C77.3237 297.168 76.9243 297.287 76.3498 297.287Z" fill="black"/>
<path d="M88.9522 297.287C88.3777 297.287 87.9714 297.168 87.7332 296.93C87.509 296.692 87.3969 296.39 87.3969 296.026V295.647C87.3969 295.283 87.509 294.981 87.7332 294.743C87.9714 294.505 88.3777 294.386 88.9522 294.386C89.5267 294.386 89.926 294.505 90.1502 294.743C90.3884 294.981 90.5075 295.283 90.5075 295.647V296.026C90.5075 296.39 90.3884 296.692 90.1502 296.93C89.926 297.168 89.5267 297.287 88.9522 297.287Z" fill="black"/>
<path d="M101.555 297.287C100.98 297.287 100.574 297.168 100.336 296.93C100.111 296.692 99.9993 296.39 99.9993 296.026V295.647C99.9993 295.283 100.111 294.981 100.336 294.743C100.574 294.505 100.98 294.386 101.555 294.386C102.129 294.386 102.528 294.505 102.753 294.743C102.991 294.981 103.11 295.283 103.11 295.647V296.026C103.11 296.39 102.991 296.692 102.753 296.93C102.528 297.168 102.129 297.287 101.555 297.287Z" fill="black"/>
<path d="M114.157 297.287C113.582 297.287 113.176 297.168 112.938 296.93C112.714 296.692 112.602 296.39 112.602 296.026V295.647C112.602 295.283 112.714 294.981 112.938 294.743C113.176 294.505 113.582 294.386 114.157 294.386C114.731 294.386 115.131 294.505 115.355 294.743C115.593 294.981 115.712 295.283 115.712 295.647V296.026C115.712 296.39 115.593 296.692 115.355 296.93C115.131 297.168 114.731 297.287 114.157 297.287Z" fill="black"/>
<path d="M126.759 297.287C126.185 297.287 125.779 297.168 125.54 296.93C125.316 296.692 125.204 296.39 125.204 296.026V295.647C125.204 295.283 125.316 294.981 125.54 294.743C125.779 294.505 126.185 294.386 126.759 294.386C127.334 294.386 127.733 294.505 127.957 294.743C128.196 294.981 128.315 295.283 128.315 295.647V296.026C128.315 296.39 128.196 296.692 127.957 296.93C127.733 297.168 127.334 297.287 126.759 297.287Z" fill="black"/>
<path d="M139.362 297.287C138.787 297.287 138.381 297.168 138.143 296.93C137.918 296.692 137.806 296.39 137.806 296.026V295.647C137.806 295.283 137.918 294.981 138.143 294.743C138.381 294.505 138.787 294.386 139.362 294.386C139.936 294.386 140.336 294.505 140.56 294.743C140.798 294.981 140.917 295.283 140.917 295.647V296.026C140.917 296.39 140.798 296.692 140.56 296.93C140.336 297.168 139.936 297.287 139.362 297.287Z" fill="black"/>
<path d="M151.964 297.287C151.39 297.287 150.983 297.168 150.745 296.93C150.521 296.692 150.409 296.39 150.409 296.026V295.647C150.409 295.283 150.521 294.981 150.745 294.743C150.983 294.505 151.39 294.386 151.964 294.386C152.539 294.386 152.938 294.505 153.162 294.743C153.4 294.981 153.519 295.283 153.519 295.647V296.026C153.519 296.39 153.4 296.692 153.162 296.93C152.938 297.168 152.539 297.287 151.964 297.287Z" fill="black"/>
<path d="M164.566 297.287C163.992 297.287 163.586 297.168 163.347 296.93C163.123 296.692 163.011 296.39 163.011 296.026V295.647C163.011 295.283 163.123 294.981 163.347 294.743C163.586 294.505 163.992 294.386 164.566 294.386C165.141 294.386 165.54 294.505 165.764 294.743C166.003 294.981 166.122 295.283 166.122 295.647V296.026C166.122 296.39 166.003 296.692 165.764 296.93C165.54 297.168 165.141 297.287 164.566 297.287Z" fill="black"/>
<path d="M177.169 297.287C176.594 297.287 176.188 297.168 175.95 296.93C175.726 296.692 175.614 296.39 175.614 296.026V295.647C175.614 295.283 175.726 294.981 175.95 294.743C176.188 294.505 176.594 294.386 177.169 294.386C177.743 294.386 178.143 294.505 178.367 294.743C178.605 294.981 178.724 295.283 178.724 295.647V296.026C178.724 296.39 178.605 296.692 178.367 296.93C178.143 297.168 177.743 297.287 177.169 297.287Z" fill="black"/>
<path d="M189.771 297.287C189.197 297.287 188.79 297.168 188.552 296.93C188.328 296.692 188.216 296.39 188.216 296.026V295.647C188.216 295.283 188.328 294.981 188.552 294.743C188.79 294.505 189.197 294.386 189.771 294.386C190.346 294.386 190.745 294.505 190.969 294.743C191.207 294.981 191.327 295.283 191.327 295.647V296.026C191.327 296.39 191.207 296.692 190.969 296.93C190.745 297.168 190.346 297.287 189.771 297.287Z" fill="black"/>
<path d="M202.374 297.287C201.799 297.287 201.393 297.168 201.155 296.93C200.93 296.692 200.818 296.39 200.818 296.026V295.647C200.818 295.283 200.93 294.981 201.155 294.743C201.393 294.505 201.799 294.386 202.374 294.386C202.948 294.386 203.347 294.505 203.572 294.743C203.81 294.981 203.929 295.283 203.929 295.647V296.026C203.929 296.39 203.81 296.692 203.572 296.93C203.347 297.168 202.948 297.287 202.374 297.287Z" fill="black"/>
<path d="M214.976 297.287C214.401 297.287 213.995 297.168 213.757 296.93C213.533 296.692 213.421 296.39 213.421 296.026V295.647C213.421 295.283 213.533 294.981 213.757 294.743C213.995 294.505 214.401 294.386 214.976 294.386C215.55 294.386 215.95 294.505 216.174 294.743C216.412 294.981 216.531 295.283 216.531 295.647V296.026C216.531 296.39 216.412 296.692 216.174 296.93C215.95 297.168 215.55 297.287 214.976 297.287Z" fill="black"/>
<path d="M227.578 297.287C227.004 297.287 226.597 297.168 226.359 296.93C226.135 296.692 226.023 296.39 226.023 296.026V295.647C226.023 295.283 226.135 294.981 226.359 294.743C226.597 294.505 227.004 294.386 227.578 294.386C228.153 294.386 228.552 294.505 228.776 294.743C229.015 294.981 229.134 295.283 229.134 295.647V296.026C229.134 296.39 229.015 296.692 228.776 296.93C228.552 297.168 228.153 297.287 227.578 297.287Z" fill="black"/>
<path d="M240.181 297.287C239.606 297.287 239.2 297.168 238.962 296.93C238.737 296.692 238.625 296.39 238.625 296.026V295.647C238.625 295.283 238.737 294.981 238.962 294.743C239.2 294.505 239.606 294.386 240.181 294.386C240.755 294.386 241.154 294.505 241.379 294.743C241.617 294.981 241.736 295.283 241.736 295.647V296.026C241.736 296.39 241.617 296.692 241.379 296.93C241.154 297.168 240.755 297.287 240.181 297.287Z" fill="black"/>
<path d="M252.783 297.287C252.209 297.287 251.802 297.168 251.564 296.93C251.34 296.692 251.228 296.39 251.228 296.026V295.647C251.228 295.283 251.34 294.981 251.564 294.743C251.802 294.505 252.209 294.386 252.783 294.386C253.358 294.386 253.757 294.505 253.981 294.743C254.219 294.981 254.338 295.283 254.338 295.647V296.026C254.338 296.39 254.219 296.692 253.981 296.93C253.757 297.168 253.358 297.287 252.783 297.287Z" fill="black"/>
<path d="M265.385 297.287C264.811 297.287 264.405 297.168 264.166 296.93C263.942 296.692 263.83 296.39 263.83 296.026V295.647C263.83 295.283 263.942 294.981 264.166 294.743C264.405 294.505 264.811 294.386 265.385 294.386C265.96 294.386 266.359 294.505 266.583 294.743C266.822 294.981 266.941 295.283 266.941 295.647V296.026C266.941 296.39 266.822 296.692 266.583 296.93C266.359 297.168 265.96 297.287 265.385 297.287Z" fill="black"/>
<path d="M277.988 297.287C277.413 297.287 277.007 297.168 276.769 296.93C276.545 296.692 276.432 296.39 276.432 296.026V295.647C276.432 295.283 276.545 294.981 276.769 294.743C277.007 294.505 277.413 294.386 277.988 294.386C278.562 294.386 278.962 294.505 279.186 294.743C279.424 294.981 279.543 295.283 279.543 295.647V296.026C279.543 296.39 279.424 296.692 279.186 296.93C278.962 297.168 278.562 297.287 277.988 297.287Z" fill="black"/>
<path d="M290.59 297.287C290.016 297.287 289.609 297.168 289.371 296.93C289.147 296.692 289.035 296.39 289.035 296.026V295.647C289.035 295.283 289.147 294.981 289.371 294.743C289.609 294.505 290.016 294.386 290.59 294.386C291.165 294.386 291.564 294.505 291.788 294.743C292.026 294.981 292.145 295.283 292.145 295.647V296.026C292.145 296.39 292.026 296.692 291.788 296.93C291.564 297.168 291.165 297.287 290.59 297.287Z" fill="black"/>
<path d="M303.193 297.287C302.618 297.287 302.212 297.168 301.974 296.93C301.749 296.692 301.637 296.39 301.637 296.026V295.647C301.637 295.283 301.749 294.981 301.974 294.743C302.212 294.505 302.618 294.386 303.193 294.386C303.767 294.386 304.166 294.505 304.391 294.743C304.629 294.981 304.748 295.283 304.748 295.647V296.026C304.748 296.39 304.629 296.692 304.391 296.93C304.166 297.168 303.767 297.287 303.193 297.287Z" fill="black"/>
<path d="M315.795 297.287C315.22 297.287 314.814 297.168 314.576 296.93C314.352 296.692 314.24 296.39 314.24 296.026V295.647C314.24 295.283 314.352 294.981 314.576 294.743C314.814 294.505 315.22 294.386 315.795 294.386C316.369 294.386 316.769 294.505 316.993 294.743C317.231 294.981 317.35 295.283 317.35 295.647V296.026C317.35 296.39 317.231 296.692 316.993 296.93C316.769 297.168 316.369 297.287 315.795 297.287Z" fill="black"/>
<path d="M328.397 297.287C327.823 297.287 327.416 297.168 327.178 296.93C326.954 296.692 326.842 296.39 326.842 296.026V295.647C326.842 295.283 326.954 294.981 327.178 294.743C327.416 294.505 327.823 294.386 328.397 294.386C328.972 294.386 329.371 294.505 329.595 294.743C329.833 294.981 329.953 295.283 329.953 295.647V296.026C329.953 296.39 329.833 296.692 329.595 296.93C329.371 297.168 328.972 297.287 328.397 297.287Z" fill="black"/>
<path d="M341 297.287C340.425 297.287 340.019 297.168 339.781 296.93C339.556 296.692 339.444 296.39 339.444 296.026V295.647C339.444 295.283 339.556 294.981 339.781 294.743C340.019 294.505 340.425 294.386 341 294.386C341.574 294.386 341.973 294.505 342.198 294.743C342.436 294.981 342.555 295.283 342.555 295.647V296.026C342.555 296.39 342.436 296.692 342.198 296.93C341.973 297.168 341.574 297.287 341 297.287Z" fill="black"/>
<path d="M353.602 297.287C353.028 297.287 352.621 297.168 352.383 296.93C352.159 296.692 352.047 296.39 352.047 296.026V295.647C352.047 295.283 352.159 294.981 352.383 294.743C352.621 294.505 353.028 294.386 353.602 294.386C354.176 294.386 354.576 294.505 354.8 294.743C355.038 294.981 355.157 295.283 355.157 295.647V296.026C355.157 296.39 355.038 296.692 354.8 296.93C354.576 297.168 354.176 297.287 353.602 297.287Z" fill="black"/>
<path d="M366.204 297.287C365.63 297.287 365.224 297.168 364.985 296.93C364.761 296.692 364.649 296.39 364.649 296.026V295.647C364.649 295.283 364.761 294.981 364.985 294.743C365.224 294.505 365.63 294.386 366.204 294.386C366.779 294.386 367.178 294.505 367.402 294.743C367.641 294.981 367.76 295.283 367.76 295.647V296.026C367.76 296.39 367.641 296.692 367.402 296.93C367.178 297.168 366.779 297.287 366.204 297.287Z" fill="black"/>
<path d="M378.807 297.287C378.232 297.287 377.826 297.168 377.588 296.93C377.364 296.692 377.251 296.39 377.251 296.026V295.647C377.251 295.283 377.364 294.981 377.588 294.743C377.826 294.505 378.232 294.386 378.807 294.386C379.381 294.386 379.781 294.505 380.005 294.743C380.243 294.981 380.362 295.283 380.362 295.647V296.026C380.362 296.39 380.243 296.692 380.005 296.93C379.781 297.168 379.381 297.287 378.807 297.287Z" fill="black"/>
<path d="M391.409 297.287C390.835 297.287 390.428 297.168 390.19 296.93C389.966 296.692 389.854 296.39 389.854 296.026V295.647C389.854 295.283 389.966 294.981 390.19 294.743C390.428 294.505 390.835 294.386 391.409 294.386C391.984 294.386 392.383 294.505 392.607 294.743C392.845 294.981 392.964 295.283 392.964 295.647V296.026C392.964 296.39 392.845 296.692 392.607 296.93C392.383 297.168 391.984 297.287 391.409 297.287Z" fill="black"/>
<path d="M404.012 297.287C403.437 297.287 403.031 297.168 402.792 296.93C402.568 296.692 402.456 296.39 402.456 296.026V295.647C402.456 295.283 402.568 294.981 402.792 294.743C403.031 294.505 403.437 294.386 404.012 294.386C404.586 294.386 404.985 294.505 405.21 294.743C405.448 294.981 405.567 295.283 405.567 295.647V296.026C405.567 296.39 405.448 296.692 405.21 296.93C404.985 297.168 404.586 297.287 404.012 297.287Z" fill="black"/>
<path d="M416.614 297.287C416.039 297.287 415.633 297.168 415.395 296.93C415.171 296.692 415.059 296.39 415.059 296.026V295.647C415.059 295.283 415.171 294.981 415.395 294.743C415.633 294.505 416.039 294.386 416.614 294.386C417.188 294.386 417.588 294.505 417.812 294.743C418.05 294.981 418.169 295.283 418.169 295.647V296.026C418.169 296.39 418.05 296.692 417.812 296.93C417.588 297.168 417.188 297.287 416.614 297.287Z" fill="black"/>
<path d="M429.216 297.287C428.642 297.287 428.235 297.168 427.997 296.93C427.773 296.692 427.661 296.39 427.661 296.026V295.647C427.661 295.283 427.773 294.981 427.997 294.743C428.235 294.505 428.642 294.386 429.216 294.386C429.791 294.386 430.19 294.505 430.414 294.743C430.652 294.981 430.772 295.283 430.772 295.647V296.026C430.772 296.39 430.652 296.692 430.414 296.93C430.19 297.168 429.791 297.287 429.216 297.287Z" fill="black"/>
<path d="M441.819 297.287C441.244 297.287 440.838 297.168 440.6 296.93C440.375 296.692 440.263 296.39 440.263 296.026V295.647C440.263 295.283 440.375 294.981 440.6 294.743C440.838 294.505 441.244 294.386 441.819 294.386C442.393 294.386 442.792 294.505 443.017 294.743C443.255 294.981 443.374 295.283 443.374 295.647V296.026C443.374 296.39 443.255 296.692 443.017 296.93C442.792 297.168 442.393 297.287 441.819 297.287Z" fill="black"/>
<path d="M454.421 297.287C453.846 297.287 453.44 297.168 453.202 296.93C452.978 296.692 452.866 296.39 452.866 296.026V295.647C452.866 295.283 452.978 294.981 453.202 294.743C453.44 294.505 453.846 294.386 454.421 294.386C454.995 294.386 455.395 294.505 455.619 294.743C455.857 294.981 455.976 295.283 455.976 295.647V296.026C455.976 296.39 455.857 296.692 455.619 296.93C455.395 297.168 454.995 297.287 454.421 297.287Z" fill="black"/>
<path d="M467.023 297.287C466.449 297.287 466.043 297.168 465.804 296.93C465.58 296.692 465.468 296.39 465.468 296.026V295.647C465.468 295.283 465.58 294.981 465.804 294.743C466.043 294.505 466.449 294.386 467.023 294.386C467.598 294.386 467.997 294.505 468.221 294.743C468.46 294.981 468.579 295.283 468.579 295.647V296.026C468.579 296.39 468.46 296.692 468.221 296.93C467.997 297.168 467.598 297.287 467.023 297.287Z" fill="black"/>
<path d="M479.626 297.287C479.051 297.287 478.645 297.168 478.407 296.93C478.183 296.692 478.07 296.39 478.07 296.026V295.647C478.07 295.283 478.183 294.981 478.407 294.743C478.645 294.505 479.051 294.386 479.626 294.386C480.2 294.386 480.6 294.505 480.824 294.743C481.062 294.981 481.181 295.283 481.181 295.647V296.026C481.181 296.39 481.062 296.692 480.824 296.93C480.6 297.168 480.2 297.287 479.626 297.287Z" fill="black"/>
<path d="M492.228 297.287C491.654 297.287 491.247 297.168 491.009 296.93C490.785 296.692 490.673 296.39 490.673 296.026V295.647C490.673 295.283 490.785 294.981 491.009 294.743C491.247 294.505 491.654 294.386 492.228 294.386C492.803 294.386 493.202 294.505 493.426 294.743C493.664 294.981 493.783 295.283 493.783 295.647V296.026C493.783 296.39 493.664 296.692 493.426 296.93C493.202 297.168 492.803 297.287 492.228 297.287Z" fill="black"/>
<path d="M504.83 297.287C504.256 297.287 503.85 297.168 503.611 296.93C503.387 296.692 503.275 296.39 503.275 296.026V295.647C503.275 295.283 503.387 294.981 503.611 294.743C503.85 294.505 504.256 294.386 504.83 294.386C505.405 294.386 505.804 294.505 506.029 294.743C506.267 294.981 506.386 295.283 506.386 295.647V296.026C506.386 296.39 506.267 296.692 506.029 296.93C505.804 297.168 505.405 297.287 504.83 297.287Z" fill="black"/>
<path d="M517.433 297.287C516.858 297.287 516.452 297.168 516.214 296.93C515.99 296.692 515.878 296.39 515.878 296.026V295.647C515.878 295.283 515.99 294.981 516.214 294.743C516.452 294.505 516.858 294.386 517.433 294.386C518.007 294.386 518.407 294.505 518.631 294.743C518.869 294.981 518.988 295.283 518.988 295.647V296.026C518.988 296.39 518.869 296.692 518.631 296.93C518.407 297.168 518.007 297.287 517.433 297.287Z" fill="black"/>
<path d="M530.035 297.287C529.461 297.287 529.054 297.168 528.816 296.93C528.592 296.692 528.48 296.39 528.48 296.026V295.647C528.48 295.283 528.592 294.981 528.816 294.743C529.054 294.505 529.461 294.386 530.035 294.386C530.61 294.386 531.009 294.505 531.233 294.743C531.471 294.981 531.591 295.283 531.591 295.647V296.026C531.591 296.39 531.471 296.692 531.233 296.93C531.009 297.168 530.61 297.287 530.035 297.287Z" fill="black"/>
<path d="M542.638 297.287C542.063 297.287 541.657 297.168 541.419 296.93C541.194 296.692 541.082 296.39 541.082 296.026V295.647C541.082 295.283 541.194 294.981 541.419 294.743C541.657 294.505 542.063 294.386 542.638 294.386C543.212 294.386 543.611 294.505 543.836 294.743C544.074 294.981 544.193 295.283 544.193 295.647V296.026C544.193 296.39 544.074 296.692 543.836 296.93C543.611 297.168 543.212 297.287 542.638 297.287Z" fill="black"/>
<path d="M555.24 297.287C554.665 297.287 554.259 297.168 554.021 296.93C553.797 296.692 553.685 296.39 553.685 296.026V295.647C553.685 295.283 553.797 294.981 554.021 294.743C554.259 294.505 554.665 294.386 555.24 294.386C555.814 294.386 556.214 294.505 556.438 294.743C556.676 294.981 556.795 295.283 556.795 295.647V296.026C556.795 296.39 556.676 296.692 556.438 296.93C556.214 297.168 555.814 297.287 555.24 297.287Z" fill="black"/>
<path d="M567.842 297.287C567.268 297.287 566.862 297.168 566.623 296.93C566.399 296.692 566.287 296.39 566.287 296.026V295.647C566.287 295.283 566.399 294.981 566.623 294.743C566.862 294.505 567.268 294.386 567.842 294.386C568.417 294.386 568.816 294.505 569.04 294.743C569.279 294.981 569.398 295.283 569.398 295.647V296.026C569.398 296.39 569.279 296.692 569.04 296.93C568.816 297.168 568.417 297.287 567.842 297.287Z" fill="black"/>
<path d="M579.709 300V281.117H581.18V300H579.709Z" fill="black"/>
</svg>
