<svg width="432" height="46" viewBox="0 0 432 46" fill="none" xmlns="http://www.w3.org/2000/svg">
<path d="M0 10.5007V8.92453H12.6012V10.5007H0Z" fill="#4C4C4C"/>
<path d="M15.5333 10.5007V8.92453H28.1345V10.5007H15.5333Z" fill="#4C4C4C"/>
<path d="M31.0666 10.5007V8.92453H43.6678V10.5007H31.0666Z" fill="#4C4C4C"/>
<path d="M46.5999 10.5007V8.92453H59.2011V10.5007H46.5999Z" fill="#4C4C4C"/>
<path d="M62.1332 10.5007V8.92453H74.7344V10.5007H62.1332Z" fill="#4C4C4C"/>
<path d="M77.6664 10.5007V8.92453H90.2677V10.5007H77.6664Z" fill="#4C4C4C"/>
<path d="M93.1997 10.5007V8.92453H105.801V10.5007H93.1997Z" fill="#4C4C4C"/>
<path d="M108.733 10.5007V8.92453H121.334V10.5007H108.733Z" fill="#4C4C4C"/>
<path d="M124.266 10.5007V8.92453H136.868V10.5007H124.266Z" fill="#4C4C4C"/>
<path d="M139.8 10.5007V8.92453H152.401V10.5007H139.8Z" fill="#4C4C4C"/>
<path d="M155.333 10.5007V8.92453H167.934V10.5007H155.333Z" fill="#4C4C4C"/>
<path d="M170.866 10.5007V8.92453H183.467V10.5007H170.866Z" fill="#4C4C4C"/>
<path d="M195.598 19.127L188.29 0H189.802L197.11 19.127H195.598Z" fill="#4C4C4C"/>
<path d="M203.718 10.5433V8.83933L212.749 3.53573V5.3036L205.293 9.58481V9.75521L212.749 14.0364V15.8469L203.718 10.5433Z" fill="#4C4C4C"/>
<path d="M219.251 14.079L226.707 9.79781V9.62741L219.251 5.3462V3.53573L228.282 8.83933V10.5433L219.251 15.8469V14.079Z" fill="#4C4C4C"/>
<path d="M234.89 19.127L242.198 0H243.71L236.402 19.127H234.89Z" fill="#4C4C4C"/>
<path d="M248.533 10.5007V8.92453H261.134V10.5007H248.533Z" fill="#4C4C4C"/>
<path d="M264.066 10.5007V8.92453H276.667V10.5007H264.066Z" fill="#4C4C4C"/>
<path d="M279.599 10.5007V8.92453H292.2V10.5007H279.599Z" fill="#4C4C4C"/>
<path d="M295.133 10.5007V8.92453H307.734V10.5007H295.133Z" fill="#4C4C4C"/>
<path d="M310.666 10.5007V8.92453H323.267V10.5007H310.666Z" fill="#4C4C4C"/>
<path d="M326.199 10.5007V8.92453H338.8V10.5007H326.199Z" fill="#4C4C4C"/>
<path d="M341.732 10.5007V8.92453H354.334V10.5007H341.732Z" fill="#4C4C4C"/>
<path d="M357.266 10.5007V8.92453H369.867V10.5007H357.266Z" fill="#4C4C4C"/>
<path d="M372.799 10.5007V8.92453H385.4V10.5007H372.799Z" fill="#4C4C4C"/>
<path d="M388.332 10.5007V8.92453H400.933V10.5007H388.332Z" fill="#4C4C4C"/>
<path d="M403.866 10.5007V8.92453H416.467V10.5007H403.866Z" fill="#4C4C4C"/>
<path d="M419.399 10.5007V8.92453H432V10.5007H419.399Z" fill="#4C4C4C"/>
<path d="M124.266 46V44.4238H136.868V46H124.266Z" fill="#4C4C4C"/>
<path d="M139.8 46V44.4238H152.401V46H139.8Z" fill="#4C4C4C"/>
<path d="M155.333 46V44.4238H167.934V46H155.333Z" fill="#4C4C4C"/>
<path d="M170.866 46V44.4238H183.467V46H170.866Z" fill="#4C4C4C"/>
<path d="M186.399 46V44.4238H199.001V46H186.399Z" fill="#4C4C4C"/>
<path d="M201.933 46V44.4238H214.534V46H201.933Z" fill="#4C4C4C"/>
<path d="M217.466 46V44.4238H230.067V46H217.466Z" fill="#4C4C4C"/>
<path d="M232.999 46V44.4238H245.601V46H232.999Z" fill="#4C4C4C"/>
<path d="M248.533 46V44.4238H261.134V46H248.533Z" fill="#4C4C4C"/>
<path d="M264.066 46V44.4238H276.667V46H264.066Z" fill="#4C4C4C"/>
<path d="M279.599 46V44.4238H292.2V46H279.599Z" fill="#4C4C4C"/>
<path d="M295.132 46V44.4238H307.734V46H295.132Z" fill="#4C4C4C"/>
</svg>
