<svg width="150" height="24" viewBox="0 0 150 24" fill="none" xmlns="http://www.w3.org/2000/svg">
<path d="M0 22.8153V0.643188L11.0973 11.7123L0 22.8153Z" fill="black"/>
<path d="M17.8448 6.25503L12.3743 11.7131L17.8463 17.1697L23.3168 11.7116L17.8448 6.25503Z" fill="black"/>
<path d="M11.7419 12.3555L6.75323 17.3653H16.7646L11.7419 12.3555Z" fill="black"/>
<path d="M0.644958 0H22.8735L11.7423 11.0691L0.644958 0Z" fill="black"/>
<path d="M23.484 10.629V0.643066L18.4953 5.61909L23.484 10.629Z" fill="black"/>
<path d="M23.4846 12.7954L12.8285 23.4245H23.4846V12.7954Z" fill="black"/>
<path d="M5.83728 18.2454H16.7649L11.5726 23.4245H0.644958L5.83728 18.2454Z" fill="black"/>
<path d="M40.4185 0H32.9524V23.4245H40.2149C45.0678 23.4245 52.0588 20.4457 52.0588 11.7461C52.0588 3.04655 44.4569 0 40.4185 0ZM40.0112 18.9224H38.2805V4.53597H40.2488C41.9456 4.53597 46.3913 5.68688 46.3913 11.78C46.3913 17.8731 41.5384 18.9224 40.0112 18.9224Z" fill="black"/>
<path d="M66.2788 8.15807V10.2906L65.634 9.57978C64.9892 8.83507 63.53 7.61646 61.1883 7.61646C59.1182 7.61646 57.082 8.42887 55.7584 9.78289C54.8761 10.663 53.4168 12.6602 53.4168 15.9437C53.4168 18.2117 54.0955 19.938 55.5888 21.5629C57.082 23.1877 58.9146 24.0001 60.9847 24.0001C62.1386 24.0001 64.2766 23.7293 65.6001 21.8675L66.2788 20.9197V23.4585H70.6906V8.15807H66.2788ZM62.0028 19.8365C59.7969 19.8365 58.0322 18.0086 58.0322 15.7744C58.0322 13.5403 59.7969 11.7124 62.0028 11.7124C64.2087 11.7124 65.9734 13.5403 65.9734 15.7744C65.9734 18.0086 64.1748 19.8365 62.0028 19.8365Z" fill="black"/>
<path d="M97.3645 8.15807V10.2906L96.7197 9.57978C96.0749 8.83507 94.6156 7.61646 92.274 7.61646C90.2039 7.61646 88.1677 8.42887 86.8441 9.78289C85.9618 10.663 84.5025 12.6602 84.5025 15.9437C84.5025 18.2117 85.1812 19.938 86.6744 21.5629C88.1677 23.1877 90.0002 24.0001 92.0704 24.0001C93.2242 24.0001 95.3622 23.7293 96.6858 21.8675L97.3645 20.9197V23.4585H101.776V8.15807H97.3645ZM93.0885 19.8365C90.8826 19.8365 89.1179 18.0086 89.1179 15.7744C89.1179 13.5403 90.8826 11.7124 93.0885 11.7124C95.2944 11.7124 97.0591 13.5403 97.0591 15.7744C97.0591 18.0086 95.2604 19.8365 93.0885 19.8365Z" fill="black"/>
<path d="M75.4411 0V8.15797H73.6425V12.1185H75.4411V23.4584H80.328V12.1185H83.552V8.15797H80.328V0H75.4411Z" fill="black"/>
<path d="M141.89 0V23.4584H146.776V12.1185H150V8.15797H146.776V0H141.89Z" fill="black"/>
<path d="M119.186 15.5035H112.466L115.792 5.51763L119.186 15.5035ZM121.968 23.4245H127.568L118.914 0H112.806L103.982 23.4245H109.514L111.143 19.3286H120.543L121.968 23.4245Z" fill="black"/>
<path d="M129.333 23.4583H134.254V16.959C134.254 16.3159 134.254 14.3187 135.645 13.0324C136.358 12.3892 137.274 12.0846 138.462 12.0846C139.276 12.0846 140.192 12.1184 140.532 12.1184V8.15791C140.294 8.15791 139.548 8.09021 139.548 8.09021C138.597 8.09021 137.715 8.09021 137.002 8.46256C136.12 8.90262 135.407 9.61348 134.932 10.5274L134.254 11.8476V8.12406H129.333V23.4583Z" fill="black"/>
</svg>
