<svg width="10" height="16" viewBox="0 0 10 16" fill="none" xmlns="http://www.w3.org/2000/svg">
<path d="M6.55805 11.6611C7.43081 11.4631 8.27789 11.1412 9.04797 10.6708C9.63837 10.3242 9.81805 9.5567 9.43301 8.98726C9.07364 8.41782 8.27789 8.24451 7.6875 8.61588C5.94199 9.68049 3.65742 9.68049 1.9119 8.61588C1.32151 8.26927 0.551428 8.41782 0.166388 8.98726C-0.167313 9.5567 0.012372 10.2994 0.602767 10.6461C1.37285 11.1165 2.21993 11.4383 3.09269 11.6364L0.705444 13.9389C0.217727 14.4093 0.217727 15.1768 0.705444 15.6472C0.962137 15.8948 1.27017 15.9938 1.60387 15.9938C1.93757 15.9938 2.2456 15.87 2.5023 15.6472L4.86387 13.3695L7.22545 15.6472C7.71317 16.1176 8.50892 16.1176 8.99664 15.6472C9.48435 15.1768 9.48435 14.4093 8.99664 13.9389L6.55805 11.6611Z" fill="#1A1A1A"/>
<path d="M4.83818 8.26925C7.19976 8.26925 9.12496 6.41238 9.12496 4.13462C9.12496 1.85687 7.19976 0 4.83818 0C2.47661 0 0.525739 1.85687 0.525739 4.13462C0.525739 6.41238 2.45094 8.26925 4.83818 8.26925ZM4.83818 2.42631C5.81362 2.42631 6.60937 3.19381 6.60937 4.13462C6.60937 5.07544 5.81362 5.84294 4.83818 5.84294C3.86275 5.84294 3.067 5.07544 3.067 4.13462C3.04133 3.19381 3.83708 2.42631 4.83818 2.42631Z" fill="#1A1A1A"/>
</svg>
