<svg width="17" height="10" viewBox="0 0 17 10" fill="none" xmlns="http://www.w3.org/2000/svg">
<path fill-rule="evenodd" clip-rule="evenodd" d="M16.4057 0.693949C16.5303 0.30249 16.4057 0.0177933 15.8541 0.0177933H14.0214C13.5587 0.0177933 13.3452 0.266904 13.2206 0.533808C13.2206 0.533808 12.2776 2.81139 10.9609 4.28825C10.5338 4.7153 10.3381 4.85765 10.1068 4.85765C9.98221 4.85765 9.82206 4.7153 9.82206 4.32384V0.676156C9.82206 0.213522 9.67972 0 9.28826 0H6.40569C6.121 0 5.94306 0.213522 5.94306 0.427045C5.94306 0.871885 6.60142 0.978648 6.6726 2.2242V4.92883C6.6726 5.51601 6.56584 5.62277 6.33452 5.62277C5.71175 5.62277 4.19929 3.3274 3.29182 0.711744C3.11388 0.19573 2.93594 0 2.47331 0H0.622776C0.088968 0 0 0.249109 0 0.516013C0 0.99644 0.622776 3.41637 2.90036 6.61922C4.41281 8.80783 6.56584 9.98221 8.50534 9.98221C9.67972 9.98221 9.82206 9.7153 9.82206 9.27046V7.61566C9.82206 7.08185 9.92883 6.99288 10.3025 6.99288C10.5694 6.99288 11.0498 7.13523 12.1352 8.18505C13.3808 9.43061 13.5943 10 14.2883 10H16.121C16.6548 10 16.9039 9.7331 16.7616 9.21708C16.6014 8.70107 15.9964 7.95374 15.2135 7.06406C14.7865 6.56584 14.1459 6.01424 13.9502 5.74733C13.6833 5.39146 13.7545 5.24911 13.9502 4.92883C13.9324 4.92883 16.1744 1.76156 16.4057 0.693949Z" fill="#1A1A1A"/>
</svg>
